<svg xmlns="http://www.w3.org/2000/svg" style="border: 0 !important; clip: rect(0 0 0 0) !important; height: 1px !important; margin: -1px !important; overflow: hidden !important; padding: 0 !important; position: absolute !important; width: 1px !important;" class="root-svg-symbols-element">
    <symbol id="adv-card-icon1" viewBox="0 0 646.008 610.383">
      <path d="M346.411,200.529l-39.592,97.313h-58.117c-6.904,0-12.5,5.597-12.5,12.5s5.596,12.5,12.5,12.5h47.946l-67.812,166.674	c-2.602,6.395,0.473,13.688,6.868,16.289c1.543,0.628,3.138,0.925,4.707,0.925c4.934,0,9.609-2.94,11.583-7.792l71.645-176.096	h61.744v19.098c0,6.903,5.597,12.5,12.5,12.5s12.5-5.597,12.5-12.5v-19.098h62.072l72.9,176.164	c1.993,4.816,6.647,7.724,11.555,7.724c1.593,0,3.212-0.306,4.774-0.953c6.379-2.64,9.41-9.95,6.771-16.329l-68.944-166.605h47.034	c6.903,0,12.5-5.597,12.5-12.5s-5.597-12.5-12.5-12.5h-57.379l-40.285-97.351c16.387-14.314,26.769-35.337,26.769-58.753	c0-28.106-14.942-52.782-37.295-66.52V25.19c0-13.89-11.301-25.19-25.19-25.19h-30.562c-13.89,0-25.19,11.3-25.19,25.19V74.9	c-22.64,13.673-37.812,38.515-37.812,66.838C319.598,165.174,329.999,186.214,346.411,200.529z M462.108,297.841h-51.727v-18.579	c0-6.904-5.597-12.5-12.5-12.5s-12.5,5.596-12.5,12.5v18.579h-51.573l34.155-83.95c9.15,3.775,19.162,5.871,29.658,5.871	c10.525,0,20.564-2.107,29.734-5.901L462.108,297.841z M382.41,25.19c0-0.105,0.085-0.19,0.19-0.19h30.562	c0.105,0,0.19,0.085,0.19,0.19v40.115c-5.083-1.045-10.344-1.594-15.73-1.594c-5.205,0-10.289,0.523-15.212,1.5V25.19z M397.622,88.712c29.238,0,53.025,23.787,53.025,53.025c0,29.238-23.787,53.025-53.025,53.025	c-29.237,0-53.024-23.787-53.024-53.025C344.598,112.499,368.385,88.712,397.622,88.712z M187.511,141.737	c0-6.903,5.597-12.5,12.5-12.5h80.288c6.904,0,12.5,5.597,12.5,12.5s-5.596,12.5-12.5,12.5h-80.288	C193.108,154.237,187.511,148.641,187.511,141.737z M646.008,141.737v456.146c0,6.903-5.597,12.5-12.5,12.5h-515.77	c-0.05,0-0.101,0-0.151-0.001C53.146,609.603,0.72,556.539,0.72,492.093l0-0.456L0.019,170.416C0.006,169.643,0,168.871,0,168.098	C0,128.752,15.484,91.6,43.599,63.484c28.115-28.115,65.268-43.599,104.614-43.599c0.601,0,1.201,0.004,1.801,0.011	c6.842,0.085,12.344,5.656,12.344,12.499v400.771c0,3.361-1.354,6.593-3.756,8.944c-2.402,2.353-5.643,3.649-9.011,3.576	c-0.641-0.014-1.282-0.021-1.923-0.021c-31.515,0-60.92,16.931-76.743,44.186c-3.466,5.972-11.115,8.001-17.086,4.535	c-5.97-3.466-8-11.116-4.535-17.086c18.543-31.942,51.642-52.821,88.055-56.162V45.359C74.483,50.874,25,103.816,25,168.098	c0,0.669,0.006,1.338,0.017,2.006c0.001,0.057,0.001,0.115,0.001,0.172l0.702,321.377l0,0.439c0,50.801,41.31,92.636,92.098,93.29	h503.19V154.237H517.997c-6.903,0-12.5-5.597-12.5-12.5c0-6.904,5.597-12.5,12.5-12.5h115.511	C640.411,129.237,646.008,134.833,646.008,141.737z M397.694,173.539c16.961,0,30.759-13.798,30.759-30.759	c0-16.96-13.798-30.759-30.759-30.759s-30.759,13.798-30.759,30.759C366.936,159.74,380.733,173.539,397.694,173.539z M397.694,137.021c3.176,0,5.759,2.583,5.759,5.759c0,3.176-2.583,5.759-5.759,5.759s-5.759-2.583-5.759-5.759	C391.936,139.604,394.519,137.021,397.694,137.021z"/>
    </symbol>
    <symbol id="adv-card-icon2" viewBox="0 0 690.352 652.485">
      <path d="M303.09,519.226h-28.421V312.168h47.586c6.903,0,12.5-5.597,12.5-12.5s-5.597-12.5-12.5-12.5h-47.586v-90.511h98.281v58.464	c0,6.903,5.597,12.5,12.5,12.5s12.5-5.597,12.5-12.5V47.307C397.95,21.222,376.728,0,350.642,0H47.307C21.222,0,0,21.222,0,47.307	v449.611c0,26.086,21.222,47.308,47.307,47.308H303.09c6.903,0,12.5-5.597,12.5-12.5S309.993,519.226,303.09,519.226z M249.669,519.226h-99.834v-89.475h99.834V519.226z M249.669,404.751h-99.834v-92.583h99.834V404.751z M249.669,287.168h-99.834	v-90.511h99.834V287.168z M25,496.918V47.307C25,35.007,35.007,25,47.307,25h303.335c12.301,0,22.308,10.007,22.308,22.307v124.351	H72.586c-6.904,0-12.5,5.596-12.5,12.5s5.596,12.5,12.5,12.5h52.249v90.511H72.586c-6.904,0-12.5,5.597-12.5,12.5	s5.596,12.5,12.5,12.5h52.249v92.583H72.586c-6.903,0-12.5,5.597-12.5,12.5s5.597,12.5,12.5,12.5h52.249v89.475H47.307	C35.007,519.226,25,509.219,25,496.918z M232.575,123.553V80.042c0-6.903,5.596-12.5,12.5-12.5s12.5,5.597,12.5,12.5v43.511	c0,6.903-5.596,12.5-12.5,12.5S232.575,130.457,232.575,123.553z M300.432,123.553V80.042c0-6.903,5.596-12.5,12.5-12.5	s12.5,5.597,12.5,12.5v43.511c0,6.903-5.596,12.5-12.5,12.5S300.432,130.457,300.432,123.553z M458.773,449.727	c-0.661,2.848-0.996,5.776-0.996,8.704c0,21.241,17.28,38.521,38.521,38.521s38.521-17.28,38.521-38.521	s-17.28-38.521-38.521-38.521c-2.832,0-5.668,0.313-8.428,0.934c-6.736,1.507-13.422-2.725-14.934-9.461	c-1.511-6.736,2.725-13.422,9.461-14.934c4.553-1.021,9.23-1.539,13.9-1.539c35.025,0,63.521,28.496,63.521,63.521	s-28.496,63.521-63.521,63.521s-63.521-28.496-63.521-63.521c0-4.828,0.553-9.659,1.645-14.358	c1.561-6.725,8.276-10.916,15.003-9.349C456.149,436.285,460.334,443.002,458.773,449.727z M690.352,441.146v35.605	c0,11.396-8.501,21.249-19.773,22.918l-37.152,5.499c-2.124,6.234-4.674,12.319-7.629,18.205l22.163,29.864	c6.791,9.152,5.835,22.13-2.223,30.188l-25.178,25.178c-8.06,8.059-21.036,9.013-30.188,2.221l-30.166-22.386	c-5.909,2.909-12.014,5.41-18.26,7.484L536.5,632.71c-1.669,11.273-11.521,19.774-22.917,19.774h-35.606	c-11.396,0-21.248-8.501-22.917-19.773l-5.499-37.152c-6.234-2.123-12.319-4.674-18.206-7.629l-29.863,22.162	c-9.153,6.79-22.13,5.835-30.188-2.222l-25.178-25.178c-8.059-8.059-9.014-21.037-2.222-30.188l22.387-30.166	c-2.909-5.908-5.41-12.012-7.484-18.26l-36.789-5.446c-11.273-1.669-19.774-11.521-19.774-22.917V440.11	c0-11.396,8.501-21.248,19.774-22.917l37.152-5.499c2.123-6.234,4.674-12.319,7.629-18.206l-22.163-29.863	c-6.791-9.154-5.834-22.132,2.222-30.188l25.178-25.177c8.059-8.06,21.037-9.014,30.188-2.222l30.166,22.387	c8.394-4.132,17.18-7.443,26.217-9.873c6.67-1.789,13.524,2.159,15.317,8.825c1.793,6.666-2.158,13.524-8.825,15.317	c-9.658,2.598-18.974,6.412-27.687,11.339l-7.075,4.001l-41.741-30.979l-22.941,22.94l30.842,41.558l-4.098,7.106	c-5,8.67-8.894,17.955-11.572,27.595l-2.177,7.828l-51.405,7.609v32.442l51.188,7.578l2.129,7.919	c2.597,9.657,6.411,18.972,11.338,27.686l4.001,7.075l-30.979,41.741l22.94,22.94l41.558-30.841l7.106,4.098	c8.67,5,17.955,8.894,27.595,11.572l7.828,2.177l7.609,51.405h32.442l7.578-51.188l7.919-2.129	c9.654-2.596,18.969-6.41,27.687-11.339l7.074-3.999l41.742,30.977l22.94-22.94L596.1,525.308l4.099-7.106	c4.999-8.67,8.893-17.953,11.571-27.594l2.177-7.828l51.405-7.609v-32.442l-51.188-7.578l-2.129-7.919	c-2.597-9.657-6.411-18.972-11.338-27.686l-4.001-7.075l30.979-41.742l-22.941-22.94l-41.557,30.842l-7.106-4.098	c-8.67-4.999-17.954-8.894-27.596-11.574l-7.827-2.176l-7.609-51.405h-34.024c-6.903,0-12.5-5.596-12.5-12.5s5.597-12.5,12.5-12.5	h35.606c11.396,0,21.248,8.501,22.917,19.774l5.499,37.151c6.235,2.124,12.319,4.674,18.206,7.629l29.863-22.163	c9.154-6.791,22.132-5.835,30.188,2.224l25.177,25.175c8.058,8.058,9.014,21.036,2.223,30.188l-22.388,30.167	c2.909,5.908,5.41,12.012,7.484,18.26l36.788,5.446C681.851,419.898,690.352,429.75,690.352,441.146z"/>
    </symbol>
    <symbol id="adv-card-icon3" viewBox="0 0 679.579 656.439">
      <path d="M303.09,519.226h-28.421v-89.475h80.738c6.903,0,12.5-5.597,12.5-12.5s-5.597-12.5-12.5-12.5h-80.738v-92.583h108.708	c0.35,0,0.694-0.024,1.036-0.052c0.343,0.028,0.686,0.052,1.036,0.052c6.903,0,12.5-5.597,12.5-12.5V47.307	C397.95,21.222,376.728,0,350.642,0H47.307C21.222,0,0,21.222,0,47.307v449.611c0,26.086,21.222,47.308,47.307,47.308H303.09	c6.903,0,12.5-5.597,12.5-12.5S309.993,519.226,303.09,519.226z M249.669,519.226h-99.834v-89.475h99.834V519.226z M249.669,404.751	h-99.834v-92.583h99.834V404.751z M249.669,196.658v90.511h-99.834v-90.511H249.669z M274.669,196.658h98.281v90.511h-98.281	V196.658z M25,496.918V47.307C25,35.007,35.007,25,47.307,25h303.335c12.301,0,22.308,10.007,22.308,22.307v124.351H72.586	c-6.904,0-12.5,5.596-12.5,12.5s5.596,12.5,12.5,12.5h52.249v90.511H72.586c-6.904,0-12.5,5.596-12.5,12.5s5.596,12.5,12.5,12.5	h52.249v92.583H72.586c-6.903,0-12.5,5.597-12.5,12.5s5.597,12.5,12.5,12.5h52.249v89.475H47.307	C35.007,519.226,25,509.219,25,496.918z M232.575,123.553V80.042c0-6.903,5.596-12.5,12.5-12.5s12.5,5.597,12.5,12.5v43.511	c0,6.903-5.596,12.5-12.5,12.5S232.575,130.457,232.575,123.553z M300.432,123.553V80.042c0-6.903,5.596-12.5,12.5-12.5	s12.5,5.597,12.5,12.5v43.511c0,6.903-5.596,12.5-12.5,12.5S300.432,130.457,300.432,123.553z M678.867,274.995	c-2.284-20.683-10.063-40.398-22.496-57.014c-2.47-3.301-6.399-5.167-10.528-5c-4.119,0.171-7.89,2.363-10.076,5.858l-43.045,68.781	c-3.477,5.555-8.604,9.128-14.438,10.061c-5.834,0.931-11.818-0.863-16.854-5.056c-11.451-9.536-14.446-28.263-6.542-40.895	l37.421-59.794c2.197-3.511,2.513-7.881,0.843-11.671c-1.669-3.79-5.107-6.506-9.181-7.254c-11.965-2.196-24.196-2.504-36.362-0.916	c-29.693,3.878-56.493,18.931-75.462,42.385c-18.963,23.445-28.091,52.799-25.703,82.653c0.814,10.197,2.945,20.212,6.331,29.767	c6.271,17.699,4.096,37.072-5.967,53.151L320.905,581.227c-11.424,18.255-7.41,43.349,9.138,57.129l8.388,6.985	c8.733,7.272,19.078,11.098,29.713,11.098c2.354,0,4.721-0.188,7.088-0.565c13.067-2.09,24.317-9.721,31.68-21.485l129.166-206.394	c8.408-13.435,22.79-22.399,38.481-23.982c0.452-0.046,0.904-0.094,1.344-0.144C639.734,396.696,685.922,338.883,678.867,274.995z M573.097,379.027c-0.355,0.04-0.712,0.078-1.057,0.113c-23.312,2.352-44.678,15.656-57.153,35.593L385.72,621.126	c-3.476,5.555-8.603,9.128-14.436,10.061c-5.83,0.934-11.817-0.862-16.854-5.057l-8.389-6.985	c-6.785-5.65-8.628-17.171-3.944-24.655l125.901-201.177c14.133-22.581,17.172-49.831,8.34-74.762	c-2.66-7.505-4.334-15.381-4.976-23.41c-3.899-48.766,31.014-91.925,79.483-98.257c3.112-0.406,6.229-0.655,9.342-0.747	l-26.493,42.332c-14.426,23.053-9.161,55.966,11.736,73.368c10.664,8.881,23.734,12.623,36.801,10.532	c13.066-2.09,24.317-9.72,31.681-21.485l32.227-51.494c4.114,8.919,6.79,18.494,7.878,28.35	C659.563,327.952,623.269,373.388,573.097,379.027z"/>
    </symbol>
    <symbol id="adv-card-icon4" viewBox="0 0 594.605 668.199">
      <path d="M130.532,233.487v193.551L297.35,521.62l166.722-95.751v-192.39l-166.916-86.9L130.532,233.487z M434.072,251.683v156.82	l-136.818,78.576l-136.722-77.518V251.675l136.637-71.267L434.072,251.683z M188.872,267.107c3.987-7.261,13.105-9.917,20.368-5.929	l88.045,48.343l87.59-48.328c7.254-4.003,16.377-1.366,20.38,5.887c4.002,7.253,1.366,16.378-5.888,20.38l-87.297,48.167v101.865	c0,8.284-6.716,15-15,15s-15-6.716-15-15v-102.1l-87.27-47.917C187.539,283.487,184.884,274.369,188.872,267.107z M594.605,163.881	v-8.96l-8.113-4.224c-0.017-0.009-0.034-0.018-0.052-0.027L297.037,0L8.183,150.66c-0.008,0.004-0.016,0.008-0.023,0.012L0,154.928	v8.925c0,0.034,0,0.069,0,0.103v335.653l297.35,168.59l297.254-170.718V163.998C594.605,163.959,594.605,163.92,594.605,163.881z M312.302,625.016v-65.28c0-8.284-6.715-15-15-15c-8.284,0-15,6.716-15,15v65.444L30,482.133V189.457l60.129,33.248	c2.3,1.272,4.79,1.876,7.245,1.876c5.282,0,10.404-2.795,13.141-7.745c4.009-7.25,1.381-16.376-5.869-20.385l-57.949-32.042	L297.05,33.829l250.766,130.554l-58.289,32.05c-7.259,3.992-9.908,13.112-5.917,20.371c2.731,4.967,7.863,7.776,13.158,7.776	c2.442,0,4.922-0.599,7.214-1.859l60.623-33.333v290.728L312.302,625.016z"/>
    </symbol>
    <symbol id="adv-card-icon5" viewBox="0 0 648.008 592.498">
      <path d="M634.508,109.351h-432c-7.456,0-13.5,6.044-13.5,13.5s6.044,13.5,13.5,13.5h418.5v429.147H118.822 c-50.24-0.653-91.102-42.038-91.102-92.291l0-0.441l-0.702-321.377c0-0.062,0-0.124-0.002-0.186 c-0.01-0.664-0.016-1.327-0.016-1.991C27,85.822,75.51,33.549,137.358,27.57v373.774c-36.373,3.633-69.368,24.613-87.919,56.569 c-3.743,6.447-1.551,14.709,4.897,18.452c6.449,3.746,14.709,1.551,18.453-4.896c15.644-26.948,44.719-43.688,75.878-43.688 c0.628,0,1.256,0.007,1.884,0.021c3.635,0.102,7.145-1.314,9.744-3.854c2.598-2.54,4.063-6.032,4.063-9.666V13.51 c0-7.395-5.949-13.414-13.344-13.499C150.414,0.004,149.813,0,149.212,0C109.599,0,72.196,15.588,43.892,43.892 C15.588,72.195,0,109.599,0,149.212c0,0.776,0.006,1.552,0.019,2.328L0.72,472.747l0,0.46c0,64.989,52.869,118.503,117.854,119.29 c0.055,0.001,0.109,0.001,0.164,0.001h515.77c7.456,0,13.5-6.044,13.5-13.5V122.851 C648.008,115.395,641.964,109.351,634.508,109.351z"/><path d="M382.14,529.376c2.11,1.241,4.476,1.863,6.843,1.863c2.289,0,4.58-0.582,6.642-1.747l151.252-85.468 c4.237-2.395,6.858-6.885,6.858-11.753V262.372c0-5.14-2.919-9.834-7.529-12.108l-151.252-74.59 c-3.846-1.896-8.365-1.854-12.177,0.119l-147.107,76.144c-4.481,2.319-7.294,6.944-7.294,11.989v167.309 c0,4.784,2.533,9.212,6.657,11.637L382.14,529.376z M255.375,272.14l133.755-69.232l137.604,67.86v153.626l-137.618,77.764 l-133.742-78.645V272.14z"/><path d="M404.554,451.955v-98.8l86.345-48.448c6.502-3.648,8.815-11.877,5.167-18.379s-11.874-8.814-18.38-5.167l-86.722,48.66 l-89.268-48.736c-6.545-3.573-14.746-1.164-18.318,5.38c-3.573,6.544-1.164,14.746,5.38,18.318l88.796,48.478v98.694 c0,7.456,6.044,13.5,13.5,13.5S404.554,459.411,404.554,451.955z"/>
    </symbol>
    <symbol id="adv-card-icon6" viewBox="0 0 694.576 681.108">
      <path d="M15,291.584h234.647c8.284,0,15-6.716,15-15V168.843c0-8.284-6.716-15-15-15s-15,6.716-15,15v92.741H30V56.937h152.309 c8.284,0,15-6.716,15-15s-6.716-15-15-15H15c-8.284,0-15,6.716-15,15v234.647C0,284.868,6.716,291.584,15,291.584z"/><path d="M297.674,3.136c-6.553-5.068-15.974-3.865-21.042,2.687L151.05,168.173l-48.042-50.114 c-5.733-5.981-15.229-6.181-21.208-0.448c-5.98,5.733-6.181,15.229-0.448,21.208l60.086,62.677c2.836,2.959,6.751,4.62,10.827,4.62 c0.264,0,0.529-0.007,0.795-0.021c4.358-0.231,8.4-2.349,11.071-5.801l136.23-176.116C305.43,17.626,304.227,8.205,297.674,3.136z"/><path d="M406.079,291.584h234.647c8.284,0,15-6.716,15-15V168.843c0-8.284-6.716-15-15-15s-15,6.716-15,15v92.741H421.079V56.937 h152.309c8.284,0,15-6.716,15-15s-6.716-15-15-15H406.079c-8.284,0-15,6.716-15,15v234.647 C391.079,284.868,397.795,291.584,406.079,291.584z"/><path d="M494.087,118.059c-5.733-5.981-15.229-6.181-21.209-0.448c-5.979,5.733-6.18,15.229-0.447,21.208l60.086,62.677 c2.837,2.959,6.751,4.62,10.827,4.62c0.265,0,0.529-0.007,0.795-0.021c4.358-0.231,8.4-2.349,11.07-5.801l136.23-176.116 c5.069-6.553,3.866-15.974-2.687-21.042s-15.975-3.864-21.042,2.687l-125.582,162.35L494.087,118.059z"/><path d="M249.647,543.367c-8.284,0-15,6.716-15,15v92.741H30V446.462h152.309c8.284,0,15-6.716,15-15s-6.716-15-15-15H15 c-8.284,0-15,6.716-15,15v234.647c0,8.284,6.716,15,15,15h234.647c8.284,0,15-6.716,15-15V558.367 C264.647,550.083,257.931,543.367,249.647,543.367z"/><path d="M297.674,392.662c-6.552-5.069-15.974-3.866-21.042,2.687L151.05,557.698l-48.042-50.113 c-5.734-5.979-15.229-6.181-21.208-0.447c-5.98,5.733-6.181,15.229-0.448,21.209l60.086,62.676 c2.836,2.958,6.751,4.619,10.827,4.619c0.264,0,0.529-0.007,0.795-0.021c4.358-0.23,8.4-2.349,11.071-5.801l136.23-176.115 C305.43,407.151,304.227,397.73,297.674,392.662z"/><path d="M640.727,543.367c-8.284,0-15,6.716-15,15v92.741H421.079V446.462h152.309c8.284,0,15-6.716,15-15s-6.716-15-15-15H406.079 c-8.284,0-15,6.716-15,15v234.647c0,8.284,6.716,15,15,15h234.647c8.284,0,15-6.716,15-15V558.367 C655.727,550.083,649.011,543.367,640.727,543.367z"/><path d="M688.753,392.662c-6.553-5.07-15.975-3.865-21.042,2.687l-125.582,162.35l-48.042-50.113 c-5.733-5.979-15.229-6.181-21.209-0.447c-5.979,5.733-6.18,15.229-0.447,21.209l60.086,62.676 c2.837,2.958,6.751,4.619,10.827,4.619c0.265,0,0.529-0.007,0.795-0.021c4.358-0.23,8.4-2.349,11.07-5.801l136.23-176.115 C696.509,407.151,695.306,397.73,688.753,392.662z"/>
    </symbol>
    <symbol id="adv-card-icon7" viewBox="0 0 609.736 651.066">
      <path d="M15,183.843h133.641c8.284,0,15-6.716,15-15s-6.716-15-15-15H30V47.095h59.072c8.284,0,15-6.716,15-15s-6.716-15-15-15H15 c-8.284,0-15,6.716-15,15v136.748C0,177.127,6.716,183.843,15,183.843z"/><path d="M72.776,72.314c-5.537-6.161-15.02-6.667-21.183-1.132c-6.162,5.537-6.669,15.021-1.132,21.183l32.115,35.741 c2.85,3.172,6.909,4.975,11.156,4.975c0.191,0,0.383-0.003,0.575-0.011c4.454-0.17,8.601-2.312,11.317-5.846l79.252-103.079 c5.049-6.567,3.819-15.985-2.749-21.034c-6.566-5.05-15.984-3.819-21.034,2.749l-68.258,88.78L72.776,72.314z"/><path d="M15,415.382h133.641c8.284,0,15-6.716,15-15s-6.716-15-15-15H30V278.634h59.072c8.284,0,15-6.716,15-15s-6.716-15-15-15H15 c-8.284,0-15,6.716-15,15v136.748C0,408.666,6.716,415.382,15,415.382z"/><path d="M182.128,234.649c-6.566-5.05-15.984-3.819-21.034,2.749l-68.258,88.78l-20.059-22.325 c-5.536-6.162-15.021-6.667-21.183-1.132c-6.162,5.537-6.669,15.021-1.132,21.183l32.115,35.741 c2.851,3.173,6.91,4.975,11.157,4.975c0.191,0,0.383-0.004,0.575-0.011c4.454-0.171,8.601-2.313,11.317-5.847l79.252-103.08 C189.927,249.116,188.696,239.698,182.128,234.649z"/><path d="M148.641,621.066H30V514.318h59.072c8.284,0,15-6.716,15-15s-6.716-15-15-15H15c-8.284,0-15,6.716-15,15v136.748 c0,8.284,6.716,15,15,15h133.641c8.284,0,15-6.716,15-15S156.925,621.066,148.641,621.066z"/><path d="M609.676,195.207c-0.641-12.831-6.296-24.582-15.926-33.086l-53.916-47.622c-19.164-16.927-47.973-15.667-65.585,2.871 L179.723,427.346c-1.604,1.688-2.793,3.728-3.473,5.955l-46.619,152.806c-1.681,5.508-0.059,11.491,4.172,15.398 c2.821,2.604,6.471,3.979,10.178,3.979c1.853,0,3.719-0.343,5.504-1.047l154.878-61.123c2.089-0.825,3.966-2.108,5.493-3.755 l287.268-309.845C605.858,220.293,610.316,208.038,609.676,195.207z M275.633,522.4l-41.985,16.569l-45.484-41.916l14.034-46.001 L275.633,522.4z M178.45,528.896l24.203,22.305l-35.253,13.912L178.45,528.896z M575.124,209.318l-22.837,24.632l-53.259-48.251 c-6.142-5.563-15.626-5.094-21.188,1.045c-5.562,6.14-5.095,15.625,1.045,21.188l53.004,48.02L300.888,505.107l-29.956-29.105 L452.76,282.185c5.668-6.042,5.365-15.534-0.677-21.202c-6.041-5.668-15.535-5.366-21.202,0.677L249.411,455.094l-28.428-27.62 l275.013-289.44c6.439-6.777,16.971-7.238,23.978-1.049l53.916,47.622c3.521,3.109,5.588,7.405,5.822,12.096 S578.317,205.873,575.124,209.318z"/>
    </symbol>
    <symbol id="adv-card-icon8" viewBox="0 0 536.993 682.667">
      <path d="M357.332,200.078c-26.503-16.353-56.973-24.997-88.116-24.997c-44.549,0-86.613,17.53-118.444,49.361 s-49.361,73.895-49.361,118.444c0,44.549,17.53,86.614,49.361,118.445s73.896,49.361,118.444,49.361s86.613-17.53,118.444-49.361 s49.361-73.896,49.361-118.445c0-8.477-0.65-17.021-1.933-25.395c-1.255-8.189-8.905-13.812-17.098-12.557 c-8.188,1.254-13.811,8.909-12.557,17.098c1.053,6.876,1.587,13.892,1.587,20.854c0,75.987-61.819,137.806-137.806,137.806 S131.41,418.873,131.41,342.887c0-75.986,61.819-137.806,137.806-137.806c25.576,0,50.599,7.099,72.362,20.528 c7.052,4.352,16.292,2.161,20.643-4.888C366.57,213.67,364.382,204.429,357.332,200.078z"/><path d="M202.186,284.981c-4.803-6.75-14.169-8.329-20.918-3.524c-6.75,4.803-8.328,14.168-3.524,20.918l79.251,111.367 c2.687,3.775,6.967,6.097,11.596,6.29c0.209,0.009,0.417,0.013,0.626,0.013c4.403,0,8.598-1.938,11.454-5.315L430.887,237.06 c5.349-6.326,4.556-15.791-1.771-21.139c-6.328-5.349-15.79-4.556-21.14,1.77L270.235,380.607L202.186,284.981z"/><path d="M521.993,114.476c-114.669,0-193.483-35.227-240.948-107.693c-4.539-6.93-13.836-8.869-20.767-4.329 c-6.93,4.539-8.868,13.836-4.329,20.767c51.286,78.301,133.51,117.987,251.044,121.063v249.884 c0,83.717-65.134,149.397-119.773,189.755c-51.163,37.789-103.07,61.158-118.723,67.807c-15.659-6.652-67.563-30.02-118.723-67.807 C95.134,543.565,30,477.884,30,394.167V144.286c88.306-2.278,155.896-24.976,206.291-69.193c6.227-5.463,6.846-14.941,1.382-21.168 c-5.463-6.227-14.94-6.846-21.168-1.382C169.007,94.218,103.095,114.476,15,114.476c-8.284,0-15,6.716-15,15v264.691 c0,42.957,14.202,85.008,42.212,124.984c21.902,31.26,52.276,61.305,90.28,89.301c64.048,47.183,127.163,72.14,129.818,73.179 c1.795,0.703,3.643,1.036,5.462,1.036c0.242,0,0.482-0.016,0.722-0.027c0.242,0.012,0.483,0.027,0.725,0.027 c1.818,0,3.668-0.333,5.463-1.036c2.655-1.039,65.771-25.995,129.818-73.179c38.004-27.996,68.379-58.042,90.28-89.301 c28.01-39.977,42.212-82.027,42.212-124.984V129.476C536.993,121.192,530.277,114.476,521.993,114.476z"/>
    </symbol>
    <symbol id="adv1" viewBox="0 0 847.381 853.92">
      <path d="M788.554 808.805h-23.331V469.503a15 15 0 0 0-22.775-12.828l-131.067 79.434v-66.605a15.002 15.002 0 0 0-22.852-12.781L459.612 535.92v-66.417a15.001 15.001 0 0 0-22.992-12.694l-97.9 61.64c-7.01 4.414-9.115 13.675-4.701 20.686 4.413 7.01 13.675 9.114 20.686 4.701l74.908-47.163v66.066a15.002 15.002 0 0 0 22.852 12.781l128.917-79.198v66.417a15 15 0 0 0 22.775 12.828l131.067-79.434v312.671H308.592l-30.298-549.911c-.438-7.952-7.013-14.175-14.977-14.175H135.892c-7.948 0-14.516 6.199-14.975 14.134L89.101 808.805H59.23c-8.284 0-15 6.716-15 15s6.716 15 15 15h729.324c8.284 0 15-6.716 15-15s-6.716-15-15-15zM150.049 274.719h99.071l2.656 48.215H190.28c-8.284 0-15 6.716-15 15s6.716 15 15 15h63.149l25.117 455.871H119.152l30.897-534.086zM360.18 679.265c-8.284 0-15-6.716-15-15s6.716-15 15-15h46.101c8.284 0 15 6.716 15 15s-6.716 15-15 15H360.18zm131.05 0c-8.284 0-15-6.716-15-15s6.716-15 15-15h46.101c8.284 0 15 6.716 15 15s-6.716 15-15 15H491.23zm132.087 0c-8.284 0-15-6.716-15-15s6.716-15 15-15h46.1c8.284 0 15 6.716 15 15s-6.716 15-15 15h-46.1zM184.604 203.776c0-29.294 11.521-56.948 32.441-77.868s48.574-32.441 77.868-32.441c1.756 0 3.505.057 5.252.14 6.783-20.531 19.625-38.892 36.774-52.331 19.369-15.178 43.518-23.537 67.999-23.537 29.293 0 56.948 11.521 77.868 32.441s32.441 48.574 32.441 77.868c0 37.887-20.007 73.817-52.213 93.77a14.93 14.93 0 0 1-7.885 2.251c-5.021 0-9.927-2.52-12.766-7.102-4.363-7.042-2.191-16.288 4.852-20.651 23.446-14.526 38.012-40.685 38.012-68.268 0-44.283-36.026-80.309-80.309-80.309a80.123 80.123 0 0 0-74.948 51.444 110.35 110.35 0 0 1 24.983 12.069c6.949 4.51 8.925 13.8 4.415 20.749-4.51 6.948-13.8 8.925-20.749 4.415a80.13 80.13 0 0 0-43.726-12.947c-44.283 0-80.309 36.026-80.309 80.309 0 8.284-6.716 15-15 15s-15-6.718-15-15.002z"/>
    </symbol>
    <symbol id="adv2" viewBox="0 0 847.381 853.92">
      <path d="M79.252 361.337V126.69c0-8.284 6.716-15 15-15h167.309c8.284 0 15 6.716 15 15s-6.716 15-15 15H109.252v204.647h204.647v-92.741c0-8.284 6.716-15 15-15s15 6.716 15 15v107.741c0 8.284-6.716 15-15 15H94.252c-8.284 0-15-6.716-15-15zM376.926 87.889c-6.553-5.068-15.974-3.865-21.042 2.687l-125.582 162.35-48.042-50.114c-5.733-5.981-15.229-6.181-21.208-.448-5.98 5.733-6.181 15.229-.448 21.208l60.086 62.677a14.999 14.999 0 0 0 22.693-1.202l136.23-176.116c5.069-6.552 3.866-15.973-2.687-21.042zm108.405 288.448h234.647c8.284 0 15-6.716 15-15V253.596c0-8.284-6.716-15-15-15s-15 6.716-15 15v92.741H500.331V141.69H652.64c8.284 0 15-6.716 15-15s-6.716-15-15-15H485.331c-8.284 0-15 6.716-15 15v234.647c0 8.284 6.716 15 15 15zm88.008-173.525c-5.733-5.981-15.229-6.181-21.209-.448-5.979 5.733-6.18 15.229-.447 21.208l60.086 62.677a15 15 0 0 0 22.692-1.202l136.23-176.116c5.069-6.553 3.866-15.974-2.687-21.042s-15.975-3.864-21.042 2.687L621.38 252.926l-48.041-50.114zM328.899 628.12c-8.284 0-15 6.716-15 15v92.741H109.252V531.215h152.309c8.284 0 15-6.716 15-15s-6.716-15-15-15H94.252c-8.284 0-15 6.716-15 15v234.646c0 8.284 6.716 15 15 15h234.647c8.284 0 15-6.716 15-15V643.12c0-8.284-6.716-15-15-15zm48.027-150.705c-6.552-5.069-15.974-3.866-21.042 2.687l-125.582 162.35-48.042-50.113c-5.734-5.979-15.229-6.181-21.208-.447-5.98 5.733-6.181 15.229-.448 21.209l60.086 62.676a15.002 15.002 0 0 0 22.693-1.203l136.23-176.115c5.069-6.554 3.866-15.975-2.687-21.044zM719.979 628.12c-8.284 0-15 6.716-15 15v92.741H500.331V531.215H652.64c8.284 0 15-6.716 15-15s-6.716-15-15-15H485.331c-8.284 0-15 6.716-15 15v234.646c0 8.284 6.716 15 15 15h234.647c8.284 0 15-6.716 15-15V643.12c.001-8.284-6.715-15-14.999-15zm48.026-150.705c-6.553-5.07-15.975-3.865-21.042 2.687l-125.582 162.35-48.042-50.113c-5.733-5.979-15.229-6.181-21.209-.447-5.979 5.733-6.18 15.229-.447 21.209l60.086 62.676a15.003 15.003 0 0 0 22.692-1.203l136.23-176.115c5.07-6.554 3.867-15.975-2.686-21.044z"/>
    </symbol>
    <symbol id="adv3" viewBox="0 0 847.381 853.92">
      <path d="m737.99 557.982-31.974-31.974 30.036-30.036c20.97-20.971 20.97-55.092 0-76.062l-4.201-4.202a53.473 53.473 0 0 0-27.273-14.64 53.773 53.773 0 0 0 3.457-19.012c0-14.366-5.595-27.873-15.754-38.031l-4.201-4.201c-7.161-7.162-15.99-12.042-25.608-14.306a53.808 53.808 0 0 0 3.182-18.299c0-14.366-5.594-27.873-15.753-38.032l-4.201-4.2c-10.158-10.159-23.664-15.753-38.03-15.753-10.083 0-19.735 2.765-28.11 7.919-2.471-8.709-7.121-16.695-13.699-23.272l-4.201-4.202c-10.158-10.158-23.665-15.752-38.031-15.752-14.367 0-27.873 5.594-38.031 15.753l-37.954 37.954-50.898-50.899c-15.261-15.261-22.705-36.779-19.914-57.561a141.796 141.796 0 0 0 1.251-19.85c-.267-37.236-15.377-72.376-42.545-98.947C308.35 13.789 272.836-.548 235.583.016c-17.932.27-35.37 3.888-51.83 10.752a15 15 0 0 0-4.833 24.451l66.466 66.466c13.073 13.074 13.073 34.347 0 47.419-13.074 13.074-34.347 13.073-47.42 0L131.962 83.1a14.998 14.998 0 0 0-24.528 5.021c-6.823 17.005-10.203 34.981-10.048 53.429.306 36.497 14.676 71.017 40.463 97.199 25.792 26.187 60.09 41.073 96.577 41.916 6.512.15 13.069-.148 19.48-.886 10.057-1.157 20.362-.09 29.797 3.083 7.851 2.641 16.358-1.584 18.999-9.437 2.641-7.852-1.584-16.358-9.436-18.999-13.584-4.568-28.379-6.109-42.789-4.451a111.97 111.97 0 0 1-15.359.697c-58.91-1.361-107.239-50.426-107.732-109.375-.054-6.386.43-12.699 1.445-18.904l47.922 47.922c12.386 12.387 28.652 18.579 44.923 18.578 16.267-.001 32.539-6.194 44.923-18.578 24.77-24.77 24.77-65.074 0-89.846L217.9 31.77a110.836 110.836 0 0 1 18.134-1.76c29.214-.431 57.1 10.858 78.526 31.813 21.408 20.937 33.313 48.537 33.522 77.714a111.876 111.876 0 0 1-.985 15.64c-4.029 29.994 6.601 60.936 28.434 82.769l14.061 14.061c-10.059.217-26.742 5.865-57.693 37.135-18.75 18.942-38.339 43.143-49.908 61.652-13.521 21.635-19.996 72.209-25.708 116.83-2.816 21.994-6.303 49.235-9.152 55.952-4.59 5.885-4.179 14.405 1.234 19.818 2.929 2.929 6.767 4.393 10.606 4.393s7.678-1.465 10.607-4.394c7.498-7.498 9.963-21.196 16.462-71.96 4.791-37.424 11.353-88.677 21.392-104.74 10.082-16.131 27.438-37.661 44.219-54.851 21.725-22.254 34.125-28.758 38.078-29.71 4.414 2.131 22.167 13.411 81.984 72.715 22.394 22.201 43.59 44.114 56.052 57.124-4.727 3.046-10.626 6.255-17.251 8.577-20.479 7.175-38.297 2.806-54.462-13.36a3841.45 3841.45 0 0 1-19.671-19.802c-3.717-4.3-7.873-8.568-12.5-12.777-16.843-17.368-20.074-21.451-20.255-21.684.337.434.431.607.431.607l-24.963 16.64c2.41 3.615 14.828 16.846 34.92 37.254 41.607 48.842 11.664 102.296 10.196 104.841-4.17 7.131-1.789 16.297 5.334 20.494a14.933 14.933 0 0 0 7.602 2.079c5.137 0 10.14-2.641 12.937-7.387.514-.871 12.605-21.672 15.349-50.714.785-8.308.835-17.803-.586-27.993 21.253 8.436 41.494 5.247 56.693-.279 6.411-2.331 12.259-5.214 17.366-8.165 1.085 12.119 6.249 23.938 15.505 33.194l4.201 4.201v.001c10.485 10.484 24.258 15.727 38.031 15.727 1.145 0 2.289-.05 3.432-.122-.112 13.918 5.122 27.872 15.718 38.468l4.201 4.2c10.159 10.157 23.666 15.753 38.031 15.753 8.892 0 17.452-2.149 25.096-6.192l33.66 33.66c9.088 9.089 9.088 23.876 0 32.965l-9.324 9.324c-4.402 4.402-10.256 6.827-16.482 6.827s-12.079-2.425-16.482-6.827L538.596 485.59c-5.856-5.858-15.354-5.858-21.213 0-5.858 5.857-5.858 15.355 0 21.213l80.115 80.115c-15.233 14.78-45.619 43.245-81.784 71.685-45.649 35.899-84.133 27.412-86.608 26.812-5.179-1.464-10.491.025-14.334 3.795l-28.988 28.43-186.135-186.133a15 15 0 0 0-21.212 0l-74.59 74.591c-5.858 5.857-5.858 15.355 0 21.213 5.857 5.857 15.355 5.857 21.213 0l63.983-63.984 181.991 181.992a14.961 14.961 0 0 0 8.082 8.082l13.002 13.002-61.911 61.912c-5.858 5.857-5.858 15.355 0 21.213 2.929 2.929 6.768 4.394 10.606 4.394s7.678-1.465 10.606-4.394l72.518-72.519c5.858-5.857 5.858-15.355 0-21.213l-16.94-16.94 23.35-22.9c17.63 1.996 58.853 1.665 103.911-33.77 37.815-29.739 68.893-58.887 84.467-74.039l34.549 34.549c10.068 10.069 23.456 15.614 37.695 15.614s27.627-5.545 37.695-15.614l9.324-9.324c10.069-10.068 15.614-23.456 15.614-37.695s-5.542-27.627-15.612-37.695zM457.916 299.788l48.894-48.894a23.629 23.629 0 0 1 16.818-6.966 23.629 23.629 0 0 1 16.818 6.966l4.201 4.202a23.63 23.63 0 0 1 6.967 16.817c0 6.353-2.475 12.326-6.967 16.819l-48.302 48.302a2431.819 2431.819 0 0 0-6.624-6.57c-11.613-11.47-22.234-21.711-31.805-30.676zm60.192 59.156 72.744-72.743a23.629 23.629 0 0 1 16.818-6.966 23.623 23.623 0 0 1 16.817 6.967l4.201 4.2a23.628 23.628 0 0 1 6.966 16.817 23.629 23.629 0 0 1-6.966 16.818l-10.422 10.422a54.53 54.53 0 0 0-6.248 5.365l-57.121 57.12a3514.424 3514.424 0 0 0-36.789-38zm61.713 97.542-4.201-4.2c-7.976-7.976-9.071-20.246-3.328-29.426l65.217-65.216a23.628 23.628 0 0 1 12.541-3.572 23.627 23.627 0 0 1 16.817 6.966l4.201 4.202a23.63 23.63 0 0 1 6.967 16.817c0 6.353-2.475 12.326-6.967 16.819l-57.61 57.61c-9.273 9.273-24.363 9.273-33.637 0zm61.381 58.272c-.001 0-.001 0 0 0l-4.2-4.199c-9.273-9.273-9.273-24.363-.001-33.638l40-40c4.638-4.637 10.727-6.955 16.818-6.955 6.09 0 12.182 2.319 16.818 6.955l4.2 4.201c9.273 9.273 9.273 24.363.001 33.637l-40.001 40a23.625 23.625 0 0 1-16.816 6.967 23.63 23.63 0 0 1-16.819-6.968z"/>
    </symbol>
    <symbol id="adv4" viewBox="0 0 847.381 853.92">
      <path d="M832.381 757.1h-58.554V478.92c0-21.98-17.883-39.863-39.863-39.863H668.18c-21.98 0-39.862 17.883-39.862 39.863V757.1h-76.704v-46.662h28.509c8.284 0 15-6.716 15-15s-6.716-15-15-15h-28.509v-45.004h28.509c8.284 0 15-6.716 15-15s-6.716-15-15-15h-28.509v-45.005h28.509c8.284 0 15-6.716 15-15s-6.716-15-15-15h-28.509v-45.004h28.509c8.284 0 15-6.716 15-15s-6.716-15-15-15h-28.509v-45.004h28.509c8.284 0 15-6.716 15-15s-6.716-15-15-15h-28.509v-45.005h28.509c8.284 0 15-6.716 15-15s-6.716-15-15-15h-28.509v-86.028h109.574c12.15 0 22.035 9.885 22.035 22.036v147.884c0 8.284 6.716 15 15 15s15-6.716 15-15V241.424c0-28.693-23.343-52.036-52.035-52.036H551.613v-56.483c0-36.262-29.501-65.763-65.764-65.763H436.64c-36.262 0-65.763 29.501-65.763 65.763v154.36c0 8.284 6.716 15 15 15s15-6.716 15-15v-154.36c0-19.72 16.043-35.763 35.763-35.763h49.209c19.72 0 35.764 16.043 35.764 35.763v18.67h-70.482c-8.284 0-15 6.716-15 15s6.716 15 15 15h70.482v22.794l-.001.019.001.019v24.864h-70.482c-8.284 0-15 6.716-15 15s6.716 15 15 15h70.482v61.125l-.001.019.001.019V395.4l-.001.019.001.019v74.966l-.001.019.001.019v74.965l-.001.019.001.019v74.966l-.001.019.001.019v74.965l-.001.019.001.019V757.1h-69.482V553.489h12.998c8.284 0 15-6.716 15-15v-79.77c0-8.284-6.716-15-15-15h-16.035c-17.233-58.986-61.784-106.292-119.697-127.037V291.41c0-8.284-6.716-15-15-15h-99.453c-8.284 0-15 6.716-15 15v25.083C141.765 337.14 97.018 384.519 79.728 443.719H63.173c-8.284 0-15 6.716-15 15v79.77c0 8.284 6.716 15 15 15h13.516V757.1H15c-8.284 0-15 6.716-15 15s6.716 15 15 15h817.381c8.284 0 15-6.716 15-15s-6.716-15-15-15zM279.41 689.636c38.351-3.023 75.289-17.55 105.353-41.683 14.353-11.521 26.92-25.037 37.368-39.992V757.1H279.41v-67.464zm-60.292-347.814a15 15 0 0 0 10.825-14.407V306.41h69.453v21.159a15.002 15.002 0 0 0 10.781 14.395c50.427 14.78 90.209 52.936 107.415 101.755h-184.52c-8.284 0-15 6.716-15 15s6.716 15 15 15H450.13v49.77H78.173v-49.77h81.345c8.284 0 15-6.716 15-15s-6.716-15-15-15h-48.291c17.26-49 57.224-87.214 107.891-101.897zM106.689 607.891c23.754 33.927 58.211 60.046 98.549 73.072 7.883 2.541 16.338-1.781 18.884-9.665 2.545-7.884-1.782-16.338-9.665-18.884-47.673-15.394-85.639-52.435-102.653-98.925h305.258c-21.353 59.069-74.741 100.359-137.651 106.064v-55.281c0-8.284-6.716-15-15-15s-15 6.716-15 15V757.1H106.689V607.891zM658.317 757.1V478.92c0-5.438 4.424-9.863 9.862-9.863h65.784c5.438 0 9.863 4.425 9.863 9.863V757.1h-85.509z"/>
    </symbol>
    <symbol id="adv5" viewBox="0 0 847.381 853.92">
      <path d="M441.82 491.942c57.255 0 103.835-46.58 103.835-103.835v-63.712c0-57.255-46.58-103.835-103.835-103.835H246.259v-23.849c0-8.284-6.716-15-15-15s-15 6.716-15 15v23.849h-50.288v-23.849c0-8.284-6.716-15-15-15s-15 6.716-15 15v23.849h-.798c-57.255 0-103.835 46.58-103.835 103.835v63.712c0 57.255 46.58 103.835 103.835 103.835H441.82zm0-241.382c40.713 0 73.835 33.122 73.835 73.835v63.712c0 40.713-33.122 73.835-73.835 73.835H246.259V250.56H441.82zm-225.561 0v26.461h-21.777c-8.284 0-15 6.716-15 15s6.716 15 15 15h21.777v34.23h-21.777c-8.284 0-15 6.716-15 15s6.716 15 15 15h21.777v34.23h-21.777c-8.284 0-15 6.716-15 15s6.716 15 15 15h21.777v26.461h-50.288V250.56h50.288zM61.338 388.107v-63.712c0-40.713 33.122-73.835 73.835-73.835h.798v211.382h-.798c-40.713 0-73.835-33.122-73.835-73.835zm755.741 38.853v184.657c0 8.284-6.716 15-15 15h-53.353a15.002 15.002 0 0 1-13.922-9.415l-30.928-77.089H565.878c-8.284 0-15-6.716-15-15s6.716-15 15-15h148.144c6.128 0 11.64 3.728 13.922 9.415l30.928 77.089h28.208V430.595l-70.293-136.524h-115.19V467.1c0 8.284-6.716 15-15 15s-15-6.716-15-15V279.071c0-8.284 6.716-15 15-15h139.338a14.998 14.998 0 0 1 13.336 8.134l76.145 147.889a15.006 15.006 0 0 1 1.663 6.866zm-149.18-95.572v46.122h59.071c8.284 0 15 6.716 15 15s-6.716 15-15 15h-74.071c-8.284 0-15-6.716-15-15v-61.122c0-8.284 6.716-15 15-15s15 6.716 15 15zM379.662 557.769c-24.282 0-45.18 14.741-54.232 35.741h-54.443c-9.052-21-29.95-35.741-54.232-35.741s-45.18 14.741-54.232 35.741h-32.811v-69.433c0-8.284-6.716-15-15-15s-15 6.716-15 15v84.433c0 8.284 6.716 15 15 15h43.407c3.344 29.398 28.358 52.316 58.636 52.316s55.292-22.918 58.637-52.316h45.634c3.344 29.398 28.358 52.316 58.637 52.316 32.549 0 59.028-26.479 59.028-59.028s-26.48-59.029-59.029-59.029zm-162.907 88.058c-16.006 0-29.029-13.022-29.029-29.028 0-16.007 13.022-29.029 29.029-29.029 16.007 0 29.029 13.022 29.029 29.029 0 16.005-13.022 29.028-29.029 29.028zm162.907 0c-16.007 0-29.029-13.022-29.029-29.028 0-16.007 13.022-29.029 29.029-29.029 16.006 0 29.029 13.022 29.029 29.029 0 16.005-13.023 29.028-29.029 29.028zm270.968-88.058c-22.443 0-41.997 12.592-51.978 31.079h-100.15l-25.837-67.539a15 15 0 0 0-14.01-9.641H198.626c-8.284 0-15 6.716-15 15s6.716 15 15 15h249.707l25.837 67.539a15 15 0 0 0 14.01 9.641h103.473c1.086 31.602 27.116 56.979 58.977 56.979 32.549 0 59.029-26.479 59.029-59.028s-26.48-59.03-59.029-59.03zm0 88.058c-16.007 0-29.029-13.022-29.029-29.028 0-16.007 13.022-29.029 29.029-29.029s29.029 13.022 29.029 29.029c0 16.005-13.022 29.028-29.029 29.028zM320.943 186.87c0-8.284 6.716-15 15-15h69.877c8.284 0 15 6.716 15 15s-6.716 15-15 15h-69.877c-8.284 0-15-6.716-15-15z"/>
    </symbol>
    <symbol id="adv6" viewBox="0 0 847.381 853.92">
      <path d="m277.805 172.292 3.5-39.884c.68-7.746 7.167-13.688 14.942-13.688h89.094c7.776 0 14.263 5.942 14.942 13.688l6.357 72.446a230.751 230.751 0 0 1 19.397 6.745 230.845 230.845 0 0 1 20.856 9.558l54.007-45.293c5.957-4.997 14.747-4.612 20.245.887l31.804 31.804c5.858 5.858 5.858 15.355 0 21.213-5.858 5.858-15.356 5.858-21.213 0l-22.087-22.087-50.827 42.626a14.943 14.943 0 0 1-9.631 3.507c-2.215 0-4.417-.498-6.442-1.458a15.026 15.026 0 0 1-4.099-1.56 200.619 200.619 0 0 0-23.733-11.334 200.53 200.53 0 0 0-25.015-8.122c-5.56-1.408-9.596-5.754-10.881-10.96a14.936 14.936 0 0 1-1.622-5.58l-5.799-66.08h-61.611l-2.299 26.195c-.724 8.253-8.005 14.359-16.253 13.631-8.254-.725-14.357-8.002-13.632-16.254zM115.339 287.969a14.968 14.968 0 0 0 11.501 5.362c3.401 0 6.821-1.151 9.631-3.507 6.348-5.323 7.178-14.785 1.854-21.132l-13.116-15.639 43.565-43.566 50.827 42.626c5.379 4.511 12.985 4.588 18.423.648a15.007 15.007 0 0 0 4.304-1.622 200.81 200.81 0 0 1 24.328-11.672 200.86 200.86 0 0 1 25.677-8.29c8.037-2.008 12.925-10.151 10.917-18.188-2.008-8.038-10.149-12.921-18.188-10.917a230.708 230.708 0 0 0-29.528 9.534 230.888 230.888 0 0 0-24.096 11.281l-53.914-45.215c-5.958-4.998-14.748-4.612-20.245.887L94.28 241.556c-5.499 5.499-5.883 14.287-.887 20.245l21.946 26.168zm221.968 411.67h-30.806l-5.799-66.08a14.895 14.895 0 0 0-2.962-7.687c-1.847-3.671-5.171-6.581-9.449-7.745a200.714 200.714 0 0 1-24.169-8.267 200.992 200.992 0 0 1-22.921-11.284 14.91 14.91 0 0 0-8.212-1.964c-4.324-.879-8.991.139-12.634 3.195l-50.827 42.626-43.565-43.565 42.626-50.827c3.577-4.266 4.363-9.934 2.576-14.811a14.933 14.933 0 0 0-1.934-5.331 200.668 200.668 0 0 1-12.62-24.862 200.491 200.491 0 0 1-9.039-26.376 15.026 15.026 0 0 0-.821-2.266c-1.331-6.286-6.629-11.24-13.363-11.831l-66.081-5.799v-61.612l66.081-5.799c7.778-.682 13.641-7.187 13.684-14.841.394-.812.725-1.666.974-2.567a200.582 200.582 0 0 1 8.19-23.734c3.21-7.7 6.945-15.276 11.099-22.52 4.122-7.187 1.637-16.353-5.549-20.475-7.187-4.12-16.352-1.637-20.475 5.549a230.703 230.703 0 0 0-12.765 25.899 230.994 230.994 0 0 0-8.404 23.736l-69.147 6.068c-7.747.68-13.689 7.167-13.689 14.942v89.094c0 7.776 5.942 14.263 13.689 14.942l69.629 6.11a230.736 230.736 0 0 0 8.353 23.159 230.742 230.742 0 0 0 10.414 21.451l-45.245 53.95c-4.997 5.958-4.612 14.747.886 20.245l62.998 62.999a14.97 14.97 0 0 0 10.61 4.394c3.413 0 6.836-1.159 9.635-3.507l54.758-45.923a231.214 231.214 0 0 0 19.585 9.239 230.616 230.616 0 0 0 18.925 6.892l6.274 71.492c.68 7.746 7.167 13.688 14.942 13.688h44.547c8.284 0 15-6.716 15-15s-6.715-14.997-14.999-14.997zm-102.755-376.94c-6.517-5.115-15.946-3.98-21.062 2.535-22.277 28.375-34.546 63.869-34.546 99.945 0 42.969 16.908 83.54 47.608 114.24 30.701 30.701 71.272 47.608 114.241 47.608 10.4 0 20.853-1.013 31.066-3.009 8.13-1.59 13.433-9.47 11.843-17.6-1.589-8.131-9.47-13.428-17.599-11.844a132.215 132.215 0 0 1-25.31 2.452c-72.702 0-131.849-59.147-131.849-131.849 0-29.389 9.995-58.305 28.143-81.419 5.116-6.514 3.981-15.943-2.535-21.059zm237.641 91.596c.649 7.835 7.209 13.764 14.933 13.763.415 0 .834-.018 1.255-.052 8.256-.685 14.395-7.932 13.711-16.188-3.346-40.391-21.749-77.88-51.818-105.562-30.069-27.682-68.949-42.927-109.479-42.927-26.119 0-52.147 6.421-75.271 18.568-7.333 3.853-10.156 12.921-6.303 20.255 3.853 7.333 12.92 10.157 20.255 6.303 18.837-9.896 40.041-15.126 61.319-15.126 68.063.001 125.78 53.135 131.398 120.966zm-53.723 10.884c0-42.831-34.845-77.676-77.676-77.676a77.616 77.616 0 0 0-22.476 3.323c-7.93 2.397-12.415 10.769-10.018 18.699 2.397 7.93 10.77 12.415 18.699 10.018a47.605 47.605 0 0 1 13.794-2.04c26.289 0 47.676 21.388 47.676 47.676s-21.388 47.676-47.676 47.676-47.676-21.388-47.676-47.676a47.512 47.512 0 0 1 3.261-17.331c3.01-7.718-.807-16.415-8.525-19.425-7.718-3.008-16.415.808-19.425 8.525a77.396 77.396 0 0 0-5.311 28.23c0 42.831 34.845 77.676 77.676 77.676 42.832.001 77.677-34.844 77.677-77.675zm262.396 37.095c-.504.012-1.04.02-1.576.023-17.726.169-34.767 8.749-45.568 22.952L465.653 706.238c-9.713 12.771-23.473 20.374-38.745 21.408a52.49 52.49 0 0 1-3.539.12c-13.987 0-27.272-5.644-37.739-16.11l-8.802-8.802c-17.623-17.622-19.609-46.965-4.523-66.801l163.82-215.404c12.954-17.034 17.385-38.576 12.155-59.103a134.245 134.245 0 0 1-4.128-34.651c.385-34.342 13.868-66.911 37.965-91.708 24.106-24.806 56.279-39.202 90.593-40.537 14.059-.544 27.995 1.081 41.426 4.837a14.998 14.998 0 0 1 7.901 23.526l-48.69 64.022c-10.073 13.244-8.643 34.372 3.123 46.138 5.13 5.129 11.529 7.713 18.037 7.271 6.503-.44 12.502-3.862 16.894-9.637l56.009-73.646a14.964 14.964 0 0 1 12.681-5.901 14.998 14.998 0 0 1 12.036 7.124c12.466 20.27 19.296 43.595 19.75 67.453 1.4 73.693-57.371 134.898-131.011 136.437zm101.016-135.866a103.879 103.879 0 0 0-5.513-31.469l-41.09 54.029c-9.713 12.771-23.474 20.374-38.746 21.408-15.286 1.035-29.933-4.646-41.276-15.99-10.804-10.803-17.354-25.614-18.442-41.704-1.089-16.089 3.404-31.647 12.653-43.808l33.619-44.205a104.847 104.847 0 0 0-9.211-.042c-55.299 2.15-99.104 47.219-99.725 102.603a104.256 104.256 0 0 0 3.2 26.908c7.503 29.448 1.18 60.308-17.347 84.67l-163.82 215.404c-5.885 7.737-5.017 20.554 1.857 27.428l8.802 8.802c5.13 5.13 11.536 7.711 18.039 7.271 6.502-.439 12.501-3.862 16.893-9.637l168.068-220.988c16.372-21.528 42.233-34.534 69.178-34.79.405-.004.795-.01 1.185-.019 57.166-1.193 102.763-48.687 101.676-105.871z"/>
    </symbol>
    <symbol id="arrow-up" viewBox="0 0 10 6.001">
      <path d="M0,5.001l4-4l0,0l1-1l5,5L9,6L5,2.001l-4,4L0,5.001z"/>
    </symbol>
    <symbol id="back" viewBox="0 0 709.814 541.096">
      <path d="M247.5428162,518.5963745H516.684021c230.682312,0,230.682312-352.2811279-19.6607666-352.2811279H155.0439148	H22.5 M22.5,166.3153687l146.9824371,143.8153687 M22.5,166.3153687L169.4824371,22.5" fill="none" stroke="#000" stroke-width="45" stroke-linecap="round" stroke-linejoin="round" stroke-miterlimit="15.118"/>
    </symbol>
    <symbol id="contact1" viewBox="0 0 117.985 168.021">
      <path d="M117.985,168.021H0v-17.46h117.985V168.021z M109.017,49.986c0,27.606-29.352,72.086-49.986,91.986	C38.571,121.727,9.046,77.592,9.046,49.986C9.046,22.379,31.425,0,59.031,0C86.638,0,109.017,22.379,109.017,49.986z M75.866,50.849	c0-9.297-7.537-16.835-16.835-16.835c-9.297,0-16.835,7.537-16.835,16.835c0,9.297,7.537,16.835,16.835,16.835	C68.329,67.683,75.866,60.146,75.866,50.849z"/>
    </symbol>
    <symbol id="contact2" viewBox="0 0 36 36">
      <path d="M7.2 15.6c2.9 5.7 7.5 10.3 13.2 13.2l4.4-4.4c.5-.5 1.3-.7 2-.5 2.2.7 4.6 1.1 7.1 1.1 1.1 0 2 .9 2 2v7c0 1.1-.9 2-2 2C15.2 36 0 20.8 0 2 0 .9.9 0 2 0h7c1.1 0 2 .9 2 2 0 2.5.4 4.9 1.1 7.1.2.7.1 1.5-.5 2l-4.4 4.5z"/>
    </symbol>
    <symbol id="contact3" viewBox="0 0 165.18 132.935">
      <path d="M150.446,0H14.734C6.609,0,0,6.609,0,14.733v103.468c0,8.124,6.609,14.733,14.734,14.733h135.712	c8.125,0,14.734-6.609,14.734-14.733V14.733C165.18,6.609,158.571,0,150.446,0z M146.21,16L82.59,56.598L18.971,16H146.21z M16,116.935V33.084l66.59,42.494l66.59-42.494v83.851H16z"/>
    </symbol>
    <symbol id="contact4" viewBox="0 0 132.964 132.964">
      <path d="M66.482,0C29.765,0,0,29.765,0,66.482c0,36.717,29.765,66.482,66.482,66.482c36.717,0,66.482-29.765,66.482-66.482	C132.964,29.765,103.199,0,66.482,0z M66.482,119.964C36.992,119.964,13,95.972,13,66.482C13,36.992,36.992,13,66.482,13	c29.49,0,53.482,23.992,53.482,53.482C119.964,95.972,95.972,119.964,66.482,119.964z M98.756,93.1	c-1.285,1.559-3.145,2.364-5.019,2.364c-1.456,0-2.921-0.486-4.132-1.485L62.346,71.496c-1.497-1.234-2.364-3.073-2.364-5.014	V33.113c0-3.59,2.91-6.5,6.5-6.5c3.59,0,6.5,2.91,6.5,6.5v30.304l24.895,20.532C100.646,86.234,101.04,90.33,98.756,93.1z"/>
    </symbol>
    <symbol id="contact5" viewBox="0 0 696.31 597.374">
      <path d="M336.799,440.048c2.261,3.756,6.325,6.053,10.709,6.053c4.384,0,8.448-2.297,10.709-6.053	c0.33-0.548,33.351-55.498,65.923-118.597c44.403-86.016,66.918-145.87,66.918-177.901C491.058,64.396,426.661,0,347.508,0	c-79.154,0-143.551,64.396-143.551,143.55c0,32.031,22.515,91.885,66.918,177.901C303.449,384.55,336.469,439.5,336.799,440.048z M347.508,25c65.368,0,118.55,53.182,118.55,118.55c0,51.542-77.623,195.312-118.55,265.505	c-40.927-70.193-118.551-213.963-118.551-265.505C228.957,78.182,282.139,25,347.508,25z M425.015,145.363	c0-42.738-34.77-77.507-77.507-77.507c-42.738,0-77.507,34.77-77.507,77.507s34.77,77.507,77.507,77.507	C390.245,222.871,425.015,188.101,425.015,145.363z M295.001,145.363c0-28.953,23.555-52.507,52.507-52.507	c28.952,0,52.507,23.555,52.507,52.507s-23.555,52.507-52.507,52.507C318.555,197.871,295.001,174.316,295.001,145.363z M692.686,572.438c-3.651,3.683-9.2,4.727-13.939,2.627l-162.563-72.028L354.16,595.724c-1.922,1.101-4.064,1.65-6.207,1.65	c-2.141,0-4.282-0.549-6.204-1.648l-162.095-92.665L17.636,576.069c-4.713,2.122-10.25,1.125-13.927-2.511	c-3.676-3.637-4.733-9.162-2.659-13.899l91.166-208.23c1.27-2.9,3.593-5.21,6.5-6.464l109.295-47.137	c6.339-2.734,13.695,0.189,16.428,6.528c2.734,6.339-0.188,13.694-6.528,16.429l-104.771,45.185L36.978,539.933l133.5-60.157	l40.639-107.05c2.45-6.453,9.667-9.701,16.123-7.25c6.454,2.45,9.7,9.669,7.25,16.123l-38.684,101.898l139.85,79.948v-71.808	c0-6.903,5.597-12.5,12.5-12.5s12.5,5.597,12.5,12.5v71.571l139.257-79.664l-39.609-101.851c-2.502-6.434,0.686-13.678,7.12-16.181	c6.433-2.499,13.678,0.685,16.181,7.12l41.641,107.076l133.639,59.213l-79.696-175.85L473.91,320.91	c-6.408-2.567-9.523-9.843-6.957-16.252c2.567-6.407,9.841-9.523,16.252-6.957l109.942,44.029c2.993,1.199,5.407,3.508,6.738,6.444	l95.31,210.302C697.336,563.2,696.337,568.756,692.686,572.438z"/>
    </symbol>
    <symbol id="contact6" viewBox="0 0 553.279 550.259">
      <path d="M543.691,474.858l-45.862,56.212c-9.773,12.339-24.364,19.189-39.539,19.189c-4.679,0-9.412-0.651-14.077-1.993	c-81.173-23.354-155.718-62.019-221.563-114.923c-35.065-28.173-67.196-60.179-95.501-95.13l-9.988-12.333	C64.584,260.959,25.883,187.43,2.134,107.336c-6.18-20.843,1.429-44.042,18.098-55.28l13.212-9.54	c0.425-0.387,0.871-0.758,1.359-1.092c5.7-3.896,13.479-2.431,17.373,3.269l69.21,101.295c3.895,5.7,2.431,13.478-3.269,17.373	c-2.157,1.474-4.612,2.18-7.041,2.18c-3.99,0-7.911-1.906-10.332-5.449l-61.92-90.625l-4.135,2.986	c-0.131,0.094-0.263,0.186-0.397,0.275c-6.71,4.461-11.608,15.968-8.188,27.501c22.812,76.933,59.984,147.56,110.485,209.917	l9.988,12.333c27.188,33.571,58.05,64.314,91.731,91.376c63.247,50.814,134.849,87.954,212.818,110.386	c10.024,2.885,20.68-0.545,27.142-8.738c0.043-0.055,0.086-0.108,0.13-0.162l3.925-4.811l-89.216-58.152	c-5.784-3.77-7.416-11.514-3.646-17.297c3.771-5.784,11.515-7.418,17.297-3.646l91.46,59.614l26.174-32.08	c0.051-0.062,0.103-0.124,0.155-0.186c2.917-3.438,4.194-7.791,3.598-12.26c-0.596-4.47-2.972-8.336-6.689-10.889l-97.093-66.663	c-6.56-4.503-14.954-4.901-21.911-1.039l-59.03,32.782c-4.519,2.51-10.121,1.979-14.088-1.34	c-67.43-56.399-124.664-113.803-174.979-175.501c-3.244-3.953-3.774-9.518-1.278-14.013l32.782-59.03	c3.863-6.956,3.465-15.352-1.039-21.911l-66.664-97.094c-2.552-3.716-6.419-6.092-10.888-6.688	c-4.471-0.595-8.823,0.681-12.261,3.599c-0.249,0.211-0.506,0.412-0.77,0.604l-8.21,5.929c-5.597,4.042-13.41,2.781-17.452-2.816	c-4.042-5.597-2.78-13.411,2.816-17.452l7.85-5.668c8.72-7.205,20.11-10.473,31.335-8.975c11.403,1.522,21.678,7.834,28.189,17.318	l66.664,97.094c9.907,14.429,10.782,32.898,2.285,48.199l-28.653,51.596c46.356,56.004,98.743,108.509,159.75,160.116l51.504-28.603	c15.3-8.498,33.771-7.622,48.199,2.285l97.093,66.663c9.484,6.513,15.797,16.787,17.318,28.19	C554.439,454.574,551.075,466.099,543.691,474.858z M316.902,128.73c24.891,3.307,48.377,14.905,66.132,32.66	c17.346,17.347,28.866,40.266,32.437,64.538c0.914,6.213,6.253,10.682,12.352,10.682c0.605,0,1.219-0.044,1.835-0.135	c6.83-1.005,11.553-7.356,10.548-14.187c-4.349-29.55-18.374-57.456-39.493-78.576c-21.617-21.617-50.212-35.739-80.517-39.765	c-6.855-0.911-13.129,3.901-14.038,10.745C305.249,121.536,310.059,127.821,316.902,128.73z M321.588,52.096	c43.591,4.533,84.664,24.097,115.654,55.086c30.68,30.68,50.197,71.326,54.957,114.451c0.706,6.396,6.12,11.129,12.409,11.129	c0.458,0,0.921-0.025,1.387-0.077c6.862-0.757,11.811-6.934,11.054-13.796c-5.382-48.752-27.446-94.702-62.129-129.385	c-35.034-35.033-81.467-57.149-130.746-62.275c-6.874-0.708-13.012,4.274-13.726,11.14	C309.733,45.236,314.721,51.382,321.588,52.096z"/>
    </symbol>
    <symbol id="contact7" viewBox="0 0 802.301 421.079">
      <path d="M790.881,15.956C782.053,5.816,769.279,0,755.835,0H270.367c-6.162,0-11.697,3.768-13.956,9.501s-0.782,12.264,3.724,16.467	l223.77,208.749c5.213,4.861,13.13,5.385,18.936,1.248L772.147,44.103c0.212,1.507,0.214,3.061-0.005,4.629l-42.755,307.425	c-2.769,19.909-20.014,34.922-40.114,34.922h-467.08c-8.284,0-15,6.716-15,15s6.716,15,15,15h467.08	c34.989,0,65.009-26.134,69.829-60.789l42.755-307.426C803.709,39.548,799.708,26.096,790.881,15.956z M495.411,204.423L308.436,30	h431.802L495.411,204.423z M90.647,124.812c0-8.284,6.716-15,15-15h138.302c8.284,0,15,6.716,15,15s-6.716,15-15,15H105.647	C97.363,139.812,90.647,133.097,90.647,124.812z M85.467,213.906c0-8.284,6.716-15,15-15h216c8.284,0,15,6.716,15,15	s-6.716,15-15,15h-216C92.183,228.906,85.467,222.19,85.467,213.906z M63.151,213.906c0,8.284-6.716,15-15,15H15	c-8.284,0-15-6.716-15-15s6.716-15,15-15h33.151C56.435,198.906,63.151,205.622,63.151,213.906z M222.194,286.964h139.338	c8.284,0,15,6.716,15,15s-6.716,15-15,15H222.194c-8.284,0-15-6.716-15-15S213.91,286.964,222.194,286.964z M193.683,301.964	c0,8.284-6.716,15-15,15h-35.741c-8.284,0-15-6.716-15-15s6.716-15,15-15h35.741C186.967,286.964,193.683,293.68,193.683,301.964z M115.467,301.964c0,8.284-6.716,15-15,15H80.266c-8.284,0-15-6.716-15-15s6.716-15,15-15h20.201	C108.751,286.964,115.467,293.68,115.467,301.964z"/>
    </symbol>
    <symbol id="contact8" viewBox="0 0 644.331 644.318">
      <path d="M644.331,322.152c0,43.201-8.579,85.245-25.498,124.962c-16.315,38.298-39.627,72.757-69.288,102.418	s-64.119,52.973-102.417,69.288c-39.378,16.774-81.043,25.339-123.855,25.484c-0.092,0.002-0.18,0.014-0.272,0.014	c-0.056,0-0.109-0.008-0.165-0.008c-0.224,0-0.446,0.008-0.67,0.008c-43.201,0-85.245-8.579-124.962-25.498	c-38.298-16.315-72.756-39.627-102.417-69.288c-29.662-29.661-52.973-64.12-69.288-102.418C8.579,407.397,0,365.353,0,322.152	c0-36.029,6.014-71.542,17.875-105.553c11.555-33.132,28.363-64.039,49.959-91.861c21.597-27.823,47.368-51.772,76.598-71.185	c30.006-19.927,62.917-34.562,97.82-43.499c8.026-2.053,16.197,2.786,18.252,10.811c2.055,8.025-2.785,16.197-10.811,18.252	C125.211,70.991,36.873,179.984,30.397,307.152h68.517c8.284,0,15,6.716,15,15s-6.716,15-15,15H30.38	C37.976,486.618,158.425,606.793,308,613.969v-74.781c0-8.284,6.716-15,15-15c8.285,0,15,6.716,15,15v74.697	c148.8-7.987,268.382-127.823,275.95-276.733h-71.122c-8.284,0-15-6.716-15-15s6.716-15,15-15h71.112	C606.368,159.56,487.766,39.69,340.279,30.547v69.907c0,8.284-6.716,15-15,15s-15-6.716-15-15V15.002	c0-4.004,1.601-7.843,4.447-10.66s6.695-4.427,10.705-4.339c42.906,0.435,84.601,9.324,123.925,26.419	c37.936,16.492,72.036,39.872,101.354,69.489s52.351,63.953,68.458,102.054C635.865,237.461,644.331,279.243,644.331,322.152z M214.862,251.202c-4.569,6.91-2.672,16.216,4.238,20.786l94.792,62.685c2.522,1.668,5.403,2.488,8.271,2.488	c3.615,0,7.209-1.304,10.042-3.854l151.252-136.239c6.155-5.544,6.65-15.029,1.106-21.185c-5.544-6.156-15.029-6.649-21.185-1.106	L320.754,303.244l-85.106-56.28C228.739,242.396,219.432,244.293,214.862,251.202z"/>
    </symbol>
    <symbol id="logo" viewBox="0 0 119.496 81.658">
      <path d="M115.029 10.565H44.158V3h3.288V0H16.511v3h3.259v7.565H4.468C2 10.565 0 12.565 0 15.032v58.791c0 2.467 2 4.468 4.468 4.468h11.46v3.367h10.101v-3.367h66.648v3.367h10.101v-3.367h12.252c2.467 0 4.468-2 4.468-4.468V15.032a4.47 4.47 0 0 0-4.469-4.467zm-92.259-.044V3.205h18.388v7.317H22.77zm93.726 63.303a1.47 1.47 0 0 1-1.468 1.468H4.468A1.47 1.47 0 0 1 3 73.824V15.032a1.47 1.47 0 0 1 1.468-1.468h110.561a1.47 1.47 0 0 1 1.468 1.468v58.792zM43.759 62.072H56.59v3H40.759V30h15.723v3H43.759v11.914H54.41v3H43.759v14.158zm-.237-33.964a3.01 3.01 0 0 0 3.007-3.007 3.01 3.01 0 0 0-3.007-3.007 3.01 3.01 0 0 0-3.007 3.007 3.01 3.01 0 0 0 3.007 3.007zm0-5.015a2.007 2.007 0 1 1 0 4.014 2.007 2.007 0 0 1 0-4.014zm10.888-1a3.01 3.01 0 0 0-3.007 3.007 3.01 3.01 0 0 0 3.007 3.007 3.01 3.01 0 0 0 3.007-3.007 3.01 3.01 0 0 0-3.007-3.007zm0 5.015a2.007 2.007 0 1 1 0-4.014 2.007 2.007 0 0 1 0 4.014z"/>
    </symbol>
    <symbol id="mail" viewBox="0 0 40 32">
      <path d="M36 0H4C1.79 0 .02 1.79.02 4L0 28c0 2.21 1.79 4 4 4h32c2.21 0 4-1.79 4-4V4c0-2.21-1.79-4-4-4zm0 8L20 18 4 8V4l16 10L36 4v4z"/>
    </symbol>
    <symbol id="phone" viewBox="0 0 36 36">
      <path d="M7.2 15.6c2.9 5.7 7.5 10.3 13.2 13.2l4.4-4.4c.5-.5 1.3-.7 2-.5 2.2.7 4.6 1.1 7.1 1.1 1.1 0 2 .9 2 2v7c0 1.1-.9 2-2 2C15.2 36 0 20.8 0 2 0 .9.9 0 2 0h7c1.1 0 2 .9 2 2 0 2.5.4 4.9 1.1 7.1.2.7.1 1.5-.5 2l-4.4 4.5z"/>
    </symbol>
    <symbol id="service-icon1" viewBox="0 0 759.324 821.067">
      <path d="M744.324,791.067h-23.331V451.765c0-5.416-2.92-10.411-7.639-13.069c-4.718-2.657-10.502-2.566-15.136,0.241	l-131.067,79.434v-66.605c0-5.433-2.937-10.439-7.678-13.092c-4.741-2.649-10.544-2.531-15.174,0.311l-128.917,79.198v-66.417	c0-5.462-2.969-10.492-7.75-13.132c-4.782-2.641-10.62-2.47-15.242,0.438l-97.9,61.64c-7.01,4.414-9.115,13.675-4.701,20.686	c4.413,7.01,13.675,9.114,20.686,4.701l74.908-47.163v66.066c0,5.433,2.937,10.439,7.678,13.092	c4.741,2.65,10.545,2.532,15.174-0.311l128.917-79.198v66.417c0,5.416,2.92,10.411,7.639,13.069	c4.718,2.657,10.503,2.566,15.136-0.241l131.067-79.434v312.671H264.362l-30.298-549.911c-0.438-7.952-7.013-14.175-14.977-14.175	H91.662c-7.948,0-14.516,6.199-14.975,14.134L44.871,791.067H15c-8.284,0-15,6.716-15,15s6.716,15,15,15h729.324	c8.284,0,15-6.716,15-15S752.608,791.067,744.324,791.067z M105.819,256.981h99.071l2.656,48.215h-61.496c-8.284,0-15,6.716-15,15	s6.716,15,15,15H209.2l25.117,455.871H74.922L105.819,256.981z M315.95,661.527c-8.284,0-15-6.716-15-15s6.716-15,15-15h46.101	c8.284,0,15,6.716,15,15s-6.716,15-15,15H315.95z M447,661.527c-8.284,0-15-6.716-15-15s6.716-15,15-15h46.101	c8.284,0,15,6.716,15,15s-6.716,15-15,15H447z M579.087,661.527c-8.284,0-15-6.716-15-15s6.716-15,15-15h46.1	c8.284,0,15,6.716,15,15s-6.716,15-15,15H579.087z M140.374,186.038c0-29.294,11.521-56.948,32.441-77.868	s48.574-32.441,77.868-32.441c1.756,0,3.505,0.057,5.252,0.14c6.783-20.531,19.625-38.892,36.774-52.331	C312.078,8.359,336.227,0,360.708,0c29.293,0,56.948,11.521,77.868,32.441s32.441,48.574,32.441,77.868	c0,37.887-20.007,73.817-52.213,93.77c-2.46,1.524-5.189,2.251-7.885,2.251c-5.021,0-9.927-2.52-12.766-7.102	c-4.363-7.042-2.191-16.288,4.852-20.651c23.446-14.526,38.012-40.685,38.012-68.268c0-44.283-36.026-80.309-80.309-80.309	c-33.638,0-63.161,20.709-74.948,51.444c8.747,2.935,17.138,6.977,24.983,12.069c6.949,4.51,8.925,13.8,4.415,20.749	c-4.51,6.948-13.8,8.925-20.749,4.415c-13.049-8.47-28.169-12.947-43.726-12.947c-44.283,0-80.309,36.026-80.309,80.309	c0,8.284-6.716,15-15,15S140.374,194.322,140.374,186.038z"/>
    </symbol>
    <symbol id="service-icon2" viewBox="0 0 775.741 493.957">
      <path d="M405.482,310.072c54.498,0,98.835-44.337,98.835-98.834v-63.712c0-54.498-44.337-98.834-98.835-98.834H204.921V19.842	c0-5.523-4.477-10-10-10s-10,4.477-10,10v28.849h-60.288V19.842c0-5.523-4.477-10-10-10s-10,4.477-10,10v28.849h-5.799	C44.337,48.691,0,93.028,0,147.525v63.712c0,54.498,44.337,98.834,98.834,98.834H405.482z M405.482,68.691	c43.47,0,78.835,35.365,78.835,78.834v63.712c0,43.469-35.365,78.834-78.835,78.834H204.921V68.691H405.482z M184.921,68.691v36.46	h-26.777c-5.523,0-10,4.477-10,10s4.477,10,10,10h26.777v44.23h-26.777c-5.523,0-10,4.477-10,10s4.477,10,10,10h26.777v44.23	h-26.777c-5.523,0-10,4.477-10,10s4.477,10,10,10h26.777v36.461h-60.288V68.691H184.921z M20,211.238v-63.712	c0-43.469,35.365-78.834,78.834-78.834h5.799v221.381h-5.799C55.365,290.072,20,254.707,20,211.238z M775.741,250.09v184.658	c0,5.522-4.478,10-10,10h-53.353c-4.085,0-7.76-2.485-9.281-6.276l-32.187-80.227H529.54c-5.522,0-10-4.478-10-10s4.478-10,10-10	h148.144c4.085,0,7.76,2.485,9.281,6.276l32.187,80.227h36.59V252.514l-72.242-140.312H560.259V290.23c0,5.522-4.478,10-10,10	s-10-4.478-10-10V102.202c0-5.523,4.478-10,10-10h139.338c3.745,0,7.177,2.093,8.891,5.422l76.144,147.889	C775.361,246.929,775.741,248.498,775.741,250.09z M626.561,154.518v51.123h64.072c5.522,0,10,4.477,10,10s-4.478,10-10,10h-74.072	c-5.522,0-10-4.477-10-10v-61.123c0-5.523,4.478-10,10-10S626.561,148.995,626.561,154.518z M343.324,385.899	c-23.375,0-43.325,14.924-50.837,35.741h-61.233c-7.512-20.817-27.462-35.741-50.837-35.741s-43.325,14.924-50.837,35.741H88.374	v-74.432c0-5.522-4.477-10-10-10s-10,4.478-10,10v84.432c0,5.522,4.477,10,10,10h48.058c0.91,29.001,24.768,52.316,53.985,52.316	s53.076-23.316,53.985-52.316h54.936c0.91,29.001,24.768,52.316,53.985,52.316c29.792,0,54.029-24.237,54.029-54.029	C397.353,410.137,373.115,385.899,343.324,385.899z M180.417,473.957c-18.764,0-34.029-15.266-34.029-34.029	s15.265-34.028,34.029-34.028s34.029,15.265,34.029,34.028S199.181,473.957,180.417,473.957z M343.324,473.957	c-18.764,0-34.029-15.266-34.029-34.029s15.265-34.028,34.029-34.028s34.029,15.265,34.029,34.028S362.087,473.957,343.324,473.957z M614.292,385.899c-21.589,0-40.253,12.733-48.899,31.079H458.722l-27.065-70.753c-1.48-3.87-5.195-6.427-9.34-6.427H162.288	c-5.523,0-10,4.478-10,10s4.477,10,10,10h253.148l27.065,70.753c1.48,3.87,5.195,6.427,9.34,6.427h108.505	c-0.053,0.977-0.084,1.959-0.084,2.949c0,29.792,24.237,54.029,54.029,54.029c29.791,0,54.028-24.237,54.028-54.029	C668.321,410.137,644.083,385.899,614.292,385.899z M614.292,473.957c-18.764,0-34.029-15.266-34.029-34.029	s15.266-34.028,34.029-34.028s34.028,15.265,34.028,34.028S633.056,473.957,614.292,473.957z M289.604,10c0-5.523,4.477-10,10-10	h69.877c5.523,0,10,4.477,10,10s-4.477,10-10,10h-69.877C294.082,20,289.604,15.523,289.604,10z"/>
    </symbol>
    <symbol id="service-icon3" viewBox="0 0 656.223 853.92">
      <path d="M640.609,557.982l-31.974-31.974l30.036-30.036c20.97-20.971,20.97-55.092,0-76.062l-4.201-4.202	c-7.74-7.739-17.273-12.613-27.273-14.64c2.262-5.997,3.457-12.411,3.457-19.012c0-14.366-5.595-27.873-15.754-38.031l-4.201-4.201	c-7.161-7.162-15.99-12.042-25.608-14.306c2.09-5.79,3.182-11.96,3.182-18.299c0-14.366-5.594-27.873-15.753-38.032l-4.201-4.2	c-10.158-10.159-23.664-15.753-38.03-15.753c-10.083,0-19.735,2.765-28.11,7.919c-2.471-8.709-7.121-16.695-13.699-23.272	l-4.201-4.202c-10.158-10.158-23.665-15.752-38.031-15.752c-14.367,0-27.873,5.594-38.031,15.753l-37.954,37.954l-50.898-50.899	c-15.261-15.261-22.705-36.779-19.914-57.561c0.878-6.531,1.299-13.209,1.251-19.85c-0.267-37.236-15.377-72.376-42.545-98.947	c-27.187-26.589-62.701-40.926-99.954-40.362c-17.932,0.27-35.37,3.888-51.83,10.752c-4.618,1.926-7.972,6.027-8.942,10.936	s0.571,9.978,4.109,13.515l66.466,66.466c13.073,13.074,13.073,34.347,0,47.419c-13.074,13.074-34.347,13.073-47.42,0L34.581,83.101	c-3.562-3.564-8.676-5.099-13.615-4.089c-4.937,1.011-9.037,4.433-10.913,9.11C3.23,105.127-0.15,123.103,0.005,141.551	c0.306,36.497,14.676,71.017,40.463,97.199c25.792,26.187,60.09,41.073,96.577,41.916c6.512,0.15,13.069-0.148,19.48-0.886	c10.057-1.157,20.362-0.09,29.797,3.083c7.851,2.641,16.358-1.584,18.999-9.437c2.641-7.852-1.584-16.358-9.436-18.999	c-13.584-4.568-28.379-6.109-42.789-4.451c-5.049,0.581-10.216,0.817-15.359,0.697c-58.91-1.361-107.239-50.426-107.732-109.375	c-0.054-6.386,0.43-12.699,1.445-18.904l47.922,47.922c12.386,12.387,28.652,18.579,44.923,18.578	c16.267-0.001,32.539-6.194,44.923-18.578c24.77-24.77,24.77-65.074,0-89.846l-48.699-48.699c5.949-1.079,12.003-1.668,18.134-1.76	c29.214-0.431,57.1,10.858,78.526,31.813c21.408,20.937,33.313,48.537,33.522,77.714c0.037,5.237-0.294,10.499-0.985,15.64	c-4.029,29.994,6.601,60.936,28.434,82.769l14.061,14.061c-10.059,0.217-26.742,5.865-57.693,37.135	c-18.75,18.942-38.339,43.143-49.908,61.652c-13.521,21.635-19.996,72.209-25.708,116.83c-2.816,21.994-6.303,49.235-9.152,55.952	c-4.59,5.885-4.179,14.405,1.234,19.818c2.929,2.929,6.767,4.393,10.606,4.393s7.678-1.465,10.607-4.394	c7.498-7.498,9.963-21.196,16.462-71.96c4.791-37.424,11.353-88.677,21.392-104.74c10.082-16.131,27.438-37.661,44.219-54.851	c21.725-22.254,34.126-28.758,38.078-29.71c4.414,2.131,22.167,13.411,81.984,72.715c22.394,22.201,43.59,44.114,56.052,57.124	c-4.727,3.046-10.626,6.255-17.251,8.577c-20.479,7.175-38.297,2.806-54.462-13.36c-7.589-7.589-14.092-14.141-19.671-19.802	c-3.717-4.3-7.873-8.568-12.5-12.777c-16.843-17.368-20.074-21.451-20.255-21.684c0.337,0.434,0.431,0.607,0.431,0.607	l-24.963,16.64c2.41,3.615,14.828,16.846,34.92,37.254c41.607,48.842,11.664,102.296,10.196,104.841	c-4.17,7.131-1.789,16.297,5.334,20.494c2.392,1.409,5.013,2.079,7.602,2.079c5.137,0,10.14-2.641,12.937-7.387	c0.514-0.871,12.605-21.672,15.349-50.714c0.785-8.308,0.835-17.803-0.586-27.993c21.253,8.436,41.494,5.247,56.693-0.279	c6.411-2.331,12.259-5.214,17.366-8.165c1.085,12.119,6.249,23.938,15.505,33.194l4.201,4.201c0,0,0,0,0,0.001	c10.485,10.484,24.258,15.727,38.031,15.727c1.145,0,2.289-0.05,3.432-0.122c-0.112,13.918,5.122,27.872,15.718,38.468l4.201,4.2	c10.159,10.157,23.666,15.753,38.031,15.753c8.892,0,17.452-2.149,25.096-6.192l33.66,33.66c9.088,9.089,9.088,23.876,0,32.965	l-9.324,9.324c-4.402,4.402-10.256,6.827-16.482,6.827s-12.079-2.425-16.482-6.827L441.214,485.59	c-5.856-5.858-15.354-5.858-21.213,0c-5.858,5.857-5.858,15.355,0,21.213l80.115,80.115c-15.233,14.78-45.619,43.245-81.784,71.685	c-45.649,35.899-84.133,27.412-86.608,26.812c-5.179-1.464-10.491,0.025-14.334,3.795l-28.988,28.43L102.268,531.507	c-2.813-2.813-6.628-4.394-10.606-4.394c-3.979,0-7.793,1.58-10.606,4.394l-74.59,74.591c-5.858,5.857-5.858,15.355,0,21.213	c5.857,5.857,15.355,5.857,21.213,0l63.983-63.984l181.991,181.992c0.714,1.713,1.749,3.325,3.128,4.731	c1.457,1.485,3.147,2.601,4.954,3.351l13.002,13.002l-61.911,61.912c-5.858,5.857-5.858,15.355,0,21.213	c2.929,2.929,6.768,4.394,10.606,4.394s7.678-1.465,10.606-4.394l72.518-72.519c5.858-5.857,5.858-15.355,0-21.213l-16.94-16.94	l23.35-22.9c17.63,1.996,58.853,1.665,103.911-33.77c37.815-29.739,68.893-58.887,84.467-74.039l34.549,34.549	c10.068,10.069,23.456,15.614,37.695,15.614s27.627-5.545,37.695-15.614l9.324-9.324c10.069-10.068,15.614-23.456,15.614-37.695	S650.678,568.05,640.609,557.982z M360.534,299.788l48.894-48.894c4.492-4.492,10.465-6.966,16.818-6.966	c6.353,0,12.326,2.474,16.818,6.966l4.201,4.202c4.492,4.492,6.967,10.465,6.967,16.817c0,6.353-2.475,12.326-6.967,16.819	l-48.302,48.302c-2.195-2.185-4.405-4.378-6.624-6.57C380.726,318.994,370.105,308.753,360.534,299.788z M420.726,358.944	l72.744-72.743c4.492-4.492,10.465-6.966,16.818-6.966c6.353,0,12.325,2.474,16.817,6.967l4.201,4.2	c4.492,4.492,6.966,10.465,6.966,16.817c0,6.353-2.474,12.326-6.966,16.818l-10.422,10.422c-2.195,1.615-4.285,3.402-6.248,5.365	l-57.121,57.12C450.135,389.2,436.683,375.176,420.726,358.944z M482.44,456.486l-4.201-4.2c-7.976-7.976-9.071-20.246-3.328-29.426	l65.217-65.216c3.729-2.323,8.038-3.572,12.541-3.572c6.353,0,12.325,2.474,16.817,6.966l4.201,4.202	c4.492,4.492,6.967,10.465,6.967,16.817c0,6.353-2.475,12.326-6.967,16.819l-57.61,57.61	C506.803,465.759,491.713,465.759,482.44,456.486z M543.821,514.758C543.82,514.758,543.82,514.758,543.821,514.758l-4.2-4.199	c-9.273-9.273-9.273-24.363-0.001-33.638l40-40c4.638-4.637,10.727-6.955,16.818-6.955c6.09,0,12.182,2.319,16.818,6.955l4.2,4.201	c9.273,9.273,9.273,24.363,0.001,33.637l-40.001,40c-4.491,4.492-10.464,6.967-16.816,6.967	C554.286,521.726,548.314,519.251,543.821,514.758z"/>
    </symbol>
    <symbol id="service-icon4" viewBox="0 0 771.593 607.92">
      <path d="M240.492,52.205l3.5-39.885C244.604,5.348,250.442,0,257.44,0h89.094c6.999,0,12.836,5.348,13.448,12.32l6.446,73.461	c6.854,2.016,13.636,4.353,20.245,6.991c7.341,2.93,14.581,6.275,21.603,9.964l54.78-45.941c5.36-4.499,13.271-4.152,18.221,0.798	l31.804,31.804c5.272,5.272,5.272,13.82,0,19.092c-5.271,5.272-13.82,5.272-19.092,0l-23.059-23.059l-51.881,43.509	c-2.528,2.121-5.607,3.157-8.668,3.157c-2.041,0-4.069-0.474-5.927-1.38c-1.327-0.274-2.635-0.749-3.88-1.448	c-7.685-4.312-15.729-8.154-23.91-11.418c-8.183-3.266-16.662-6.02-25.203-8.183c-5.064-1.283-8.718-5.275-9.827-10.035	c-0.836-1.561-1.385-3.306-1.55-5.181L334.167,27h-64.359l-2.419,27.565c-0.651,7.427-7.2,12.92-14.628,12.268	C245.333,66.181,239.84,59.632,240.492,52.205z M77.681,166.786c2.67,3.184,6.497,4.826,10.351,4.826	c3.061,0,6.14-1.036,8.668-3.157c5.713-4.791,6.46-13.306,1.669-19.019L84.37,132.744l45.508-45.508l51.88,43.509	c4.928,4.134,11.937,4.136,16.846,0.393c1.43-0.266,2.842-0.767,4.179-1.524c7.872-4.453,16.118-8.409,24.511-11.759	c8.395-3.351,17.098-6.162,25.87-8.353c7.234-1.808,11.633-9.136,9.826-16.37c-1.808-7.233-9.137-11.634-16.37-9.826	c-9.947,2.485-19.817,5.672-29.336,9.472c-8.471,3.381-16.809,7.31-24.835,11.694l-54.696-45.871	c-5.363-4.498-13.272-4.151-18.221,0.798l-62.999,62.999c-4.949,4.949-5.295,12.858-0.798,18.221L77.681,166.786z M298.5,580.92	H266.32l-5.919-67.449c-0.234-2.661-1.234-5.066-2.751-7.036c-1.651-3.356-4.668-6.02-8.561-7.079	c-8.249-2.244-16.442-5.047-24.351-8.329c-7.9-3.28-15.67-7.105-23.092-11.368c-2.403-1.379-5.051-1.935-7.621-1.761	c-3.932-0.844-8.195,0.057-11.515,2.841l-51.88,43.509l-45.509-45.509l43.509-51.88c3.25-3.876,3.944-9.039,2.275-13.457	c-0.252-1.701-0.831-3.383-1.769-4.95c-4.801-8.019-9.079-16.446-12.715-25.05c-3.638-8.605-6.702-17.546-9.107-26.573	c-0.208-0.779-0.49-1.516-0.819-2.223c-1.157-5.712-5.944-10.23-12.046-10.765L27,337.921v-64.359l67.45-5.919	c7.112-0.624,12.434-6.658,12.303-13.69c0.426-0.822,0.783-1.694,1.039-2.623c2.239-8.106,5.015-16.151,8.251-23.913	c3.236-7.76,6.999-15.394,11.183-22.69c3.709-6.468,1.473-14.718-4.995-18.427c-6.47-3.71-14.718-1.473-18.427,4.995	c-4.745,8.274-9.012,16.932-12.681,25.731c-3.33,7.985-6.225,16.236-8.63,24.563l-70.174,6.158C5.348,248.358,0,254.196,0,261.195	v89.094c0,6.998,5.348,12.837,12.32,13.448l70.648,6.2c2.416,8.139,5.289,16.181,8.585,23.978	c3.198,7.564,6.837,15.006,10.846,22.207l-45.91,54.743c-4.497,5.362-4.151,13.272,0.798,18.221l62.999,62.999	c2.624,2.624,6.081,3.954,9.549,3.954c3.072,0,6.153-1.044,8.672-3.156l55.534-46.574c6.619,3.547,13.438,6.786,20.347,9.655	c6.45,2.677,13.069,5.068,19.757,7.148l6.361,72.488c0.612,6.972,6.45,12.32,13.448,12.32H298.5c7.456,0,13.5-6.044,13.5-13.5	S305.956,580.92,298.5,580.92z M194.819,203.66c-5.864-4.604-14.351-3.583-18.955,2.282c-22.07,28.111-34.225,63.277-34.225,99.018	c0,42.567,16.751,82.763,47.169,113.18s70.612,47.169,113.18,47.169c10.31,0,20.665-1.003,30.779-2.981	c7.317-1.432,12.088-8.523,10.657-15.841c-1.432-7.317-8.525-12.087-15.841-10.657c-8.41,1.646-17.022,2.479-25.596,2.479	c-73.529,0-133.349-59.82-133.349-133.349c0-29.723,10.108-58.967,28.462-82.345C201.705,216.751,200.684,208.265,194.819,203.66z M434.881,293.952c0.584,7.052,6.487,12.387,13.438,12.386c0.374,0,0.751-0.015,1.13-0.046c7.431-0.616,12.955-7.138,12.34-14.568	c-3.314-40.015-21.547-77.156-51.339-104.582c-29.792-27.426-68.312-42.53-108.463-42.53c-25.877,0-51.665,6.361-74.573,18.396	c-6.601,3.467-9.141,11.629-5.673,18.229c3.468,6.601,11.629,9.142,18.229,5.673c19.051-10.008,40.496-15.298,62.016-15.298	C370.825,171.611,429.199,225.35,434.881,293.952z M378.164,304.96c0-42.004-34.172-76.176-76.176-76.176	c-7.472,0-14.887,1.096-22.041,3.258c-7.137,2.157-11.174,9.691-9.017,16.829c2.157,7.137,9.691,11.174,16.829,9.017	c4.618-1.396,9.405-2.104,14.229-2.104c27.116,0,49.176,22.061,49.176,49.176c0,27.115-22.061,49.176-49.176,49.176	s-49.176-22.061-49.176-49.176c0-6.14,1.131-12.153,3.363-17.874c2.71-6.946-0.724-14.773-7.67-17.483	c-6.947-2.713-14.773,0.724-17.483,7.67c-3.457,8.86-5.209,18.175-5.209,27.686c0,42.004,34.172,76.176,76.176,76.176	S378.164,346.964,378.164,304.96z M642.027,340.553c-0.51,0.011-1.02,0.019-1.529,0.023c-18.217,0.174-35.698,8.975-46.777,23.544	L425.651,585.11c-9.445,12.421-22.817,19.814-37.651,20.819c-1.147,0.077-2.293,0.116-3.433,0.116	c-13.589,0-26.502-5.489-36.684-15.671l-8.802-8.802c-17.103-17.103-19.031-45.58-4.39-64.832l163.82-215.404	c13.232-17.399,17.758-39.407,12.414-60.38c-2.838-11.139-4.211-22.667-4.081-34.264c0.38-33.956,13.713-66.16,37.541-90.68	c23.837-24.528,55.648-38.763,89.576-40.083c13.896-0.537,27.681,1.068,40.963,4.782c4.308,1.204,7.739,4.464,9.163,8.704	c1.424,4.24,0.655,8.91-2.053,12.47l-48.69,64.022c-10.501,13.809-9.01,35.839,3.257,48.106c5.439,5.44,12.256,8.173,19.2,7.708	c6.941-0.47,13.329-4.101,17.986-10.225l56.009-73.646c2.694-3.543,6.944-5.537,11.412-5.311c4.447,0.22,8.5,2.619,10.832,6.411	c12.326,20.042,19.078,43.104,19.527,66.694C772.953,278.511,714.84,339.031,642.027,340.553z M744.574,206.158	c-0.226-11.854-2.449-23.538-6.526-34.554l-42.769,56.236c-9.446,12.421-22.818,19.814-37.653,20.819	c-14.828,1-29.081-4.52-40.114-15.554c-21.671-21.67-24.209-59.147-5.657-83.542l35.317-46.438c-2.645-0.198-5.304-0.297-7.97-0.297	c-1.395,0-2.791,0.027-4.19,0.082c-56.1,2.182-100.538,47.902-101.168,104.086c-0.104,9.249,0.989,18.432,3.247,27.295	c7.389,29.002,1.161,59.397-17.088,83.391L356.183,533.084c-6.307,8.293-5.376,22.029,1.99,29.396l8.802,8.802	c5.441,5.44,12.262,8.17,19.2,7.708c6.94-0.47,13.328-4.102,17.985-10.225l168.068-220.989	c16.092-21.162,41.512-33.946,67.997-34.198c0.402-0.005,0.818-0.011,1.234-0.02C699.419,312.347,745.675,264.167,744.574,206.158z"/>
    </symbol></svg>