<svg version="1.1" id="Слой_1" xmlns="http://www.w3.org/2000/svg" x="0" y="0" viewBox="0 0 694.576 681.108" xml:space="preserve"><path d="M15,291.584h234.647c8.284,0,15-6.716,15-15V168.843c0-8.284-6.716-15-15-15s-15,6.716-15,15v92.741H30V56.937h152.309 c8.284,0,15-6.716,15-15s-6.716-15-15-15H15c-8.284,0-15,6.716-15,15v234.647C0,284.868,6.716,291.584,15,291.584z"/><path d="M297.674,3.136c-6.553-5.068-15.974-3.865-21.042,2.687L151.05,168.173l-48.042-50.114 c-5.733-5.981-15.229-6.181-21.208-0.448c-5.98,5.733-6.181,15.229-0.448,21.208l60.086,62.677c2.836,2.959,6.751,4.62,10.827,4.62 c0.264,0,0.529-0.007,0.795-0.021c4.358-0.231,8.4-2.349,11.071-5.801l136.23-176.116C305.43,17.626,304.227,8.205,297.674,3.136z"/><path d="M406.079,291.584h234.647c8.284,0,15-6.716,15-15V168.843c0-8.284-6.716-15-15-15s-15,6.716-15,15v92.741H421.079V56.937 h152.309c8.284,0,15-6.716,15-15s-6.716-15-15-15H406.079c-8.284,0-15,6.716-15,15v234.647 C391.079,284.868,397.795,291.584,406.079,291.584z"/><path d="M494.087,118.059c-5.733-5.981-15.229-6.181-21.209-0.448c-5.979,5.733-6.18,15.229-0.447,21.208l60.086,62.677 c2.837,2.959,6.751,4.62,10.827,4.62c0.265,0,0.529-0.007,0.795-0.021c4.358-0.231,8.4-2.349,11.07-5.801l136.23-176.116 c5.069-6.553,3.866-15.974-2.687-21.042s-15.975-3.864-21.042,2.687l-125.582,162.35L494.087,118.059z"/><path d="M249.647,543.367c-8.284,0-15,6.716-15,15v92.741H30V446.462h152.309c8.284,0,15-6.716,15-15s-6.716-15-15-15H15 c-8.284,0-15,6.716-15,15v234.647c0,8.284,6.716,15,15,15h234.647c8.284,0,15-6.716,15-15V558.367 C264.647,550.083,257.931,543.367,249.647,543.367z"/><path d="M297.674,392.662c-6.552-5.069-15.974-3.866-21.042,2.687L151.05,557.698l-48.042-50.113 c-5.734-5.979-15.229-6.181-21.208-0.447c-5.98,5.733-6.181,15.229-0.448,21.209l60.086,62.676 c2.836,2.958,6.751,4.619,10.827,4.619c0.264,0,0.529-0.007,0.795-0.021c4.358-0.23,8.4-2.349,11.071-5.801l136.23-176.115 C305.43,407.151,304.227,397.73,297.674,392.662z"/><path d="M640.727,543.367c-8.284,0-15,6.716-15,15v92.741H421.079V446.462h152.309c8.284,0,15-6.716,15-15s-6.716-15-15-15H406.079 c-8.284,0-15,6.716-15,15v234.647c0,8.284,6.716,15,15,15h234.647c8.284,0,15-6.716,15-15V558.367 C655.727,550.083,649.011,543.367,640.727,543.367z"/><path d="M688.753,392.662c-6.553-5.07-15.975-3.865-21.042,2.687l-125.582,162.35l-48.042-50.113 c-5.733-5.979-15.229-6.181-21.209-0.447c-5.979,5.733-6.18,15.229-0.447,21.209l60.086,62.676 c2.837,2.958,6.751,4.619,10.827,4.619c0.265,0,0.529-0.007,0.795-0.021c4.358-0.23,8.4-2.349,11.07-5.801l136.23-176.115 C696.509,407.151,695.306,397.73,688.753,392.662z"/></svg>