<svg version="1.1" id="Слой_13" xmlns="http://www.w3.org/2000/svg" x="0" y="0" viewBox="0 0 648.008 592.498" xml:space="preserve"><path d="M634.508,109.351h-432c-7.456,0-13.5,6.044-13.5,13.5s6.044,13.5,13.5,13.5h418.5v429.147H118.822 c-50.24-0.653-91.102-42.038-91.102-92.291l0-0.441l-0.702-321.377c0-0.062,0-0.124-0.002-0.186 c-0.01-0.664-0.016-1.327-0.016-1.991C27,85.822,75.51,33.549,137.358,27.57v373.774c-36.373,3.633-69.368,24.613-87.919,56.569 c-3.743,6.447-1.551,14.709,4.897,18.452c6.449,3.746,14.709,1.551,18.453-4.896c15.644-26.948,44.719-43.688,75.878-43.688 c0.628,0,1.256,0.007,1.884,0.021c3.635,0.102,7.145-1.314,9.744-3.854c2.598-2.54,4.063-6.032,4.063-9.666V13.51 c0-7.395-5.949-13.414-13.344-13.499C150.414,0.004,149.813,0,149.212,0C109.599,0,72.196,15.588,43.892,43.892 C15.588,72.195,0,109.599,0,149.212c0,0.776,0.006,1.552,0.019,2.328L0.72,472.747l0,0.46c0,64.989,52.869,118.503,117.854,119.29 c0.055,0.001,0.109,0.001,0.164,0.001h515.77c7.456,0,13.5-6.044,13.5-13.5V122.851 C648.008,115.395,641.964,109.351,634.508,109.351z"/><path d="M382.14,529.376c2.11,1.241,4.476,1.863,6.843,1.863c2.289,0,4.58-0.582,6.642-1.747l151.252-85.468 c4.237-2.395,6.858-6.885,6.858-11.753V262.372c0-5.14-2.919-9.834-7.529-12.108l-151.252-74.59 c-3.846-1.896-8.365-1.854-12.177,0.119l-147.107,76.144c-4.481,2.319-7.294,6.944-7.294,11.989v167.309 c0,4.784,2.533,9.212,6.657,11.637L382.14,529.376z M255.375,272.14l133.755-69.232l137.604,67.86v153.626l-137.618,77.764 l-133.742-78.645V272.14z"/><path d="M404.554,451.955v-98.8l86.345-48.448c6.502-3.648,8.815-11.877,5.167-18.379s-11.874-8.814-18.38-5.167l-86.722,48.66 l-89.268-48.736c-6.545-3.573-14.746-1.164-18.318,5.38c-3.573,6.544-1.164,14.746,5.38,18.318l88.796,48.478v98.694 c0,7.456,6.044,13.5,13.5,13.5S404.554,459.411,404.554,451.955z"/></svg>