<svg version="1.1" id="Слой_9" xmlns="http://www.w3.org/2000/svg" x="0" y="0" viewBox="0 0 594.605 668.199" xml:space="preserve"><path d="M130.532,233.487v193.551L297.35,521.62l166.722-95.751v-192.39l-166.916-86.9L130.532,233.487z M434.072,251.683v156.82	l-136.818,78.576l-136.722-77.518V251.675l136.637-71.267L434.072,251.683z M188.872,267.107c3.987-7.261,13.105-9.917,20.368-5.929	l88.045,48.343l87.59-48.328c7.254-4.003,16.377-1.366,20.38,5.887c4.002,7.253,1.366,16.378-5.888,20.38l-87.297,48.167v101.865	c0,8.284-6.716,15-15,15s-15-6.716-15-15v-102.1l-87.27-47.917C187.539,283.487,184.884,274.369,188.872,267.107z M594.605,163.881	v-8.96l-8.113-4.224c-0.017-0.009-0.034-0.018-0.052-0.027L297.037,0L8.183,150.66c-0.008,0.004-0.016,0.008-0.023,0.012L0,154.928	v8.925c0,0.034,0,0.069,0,0.103v335.653l297.35,168.59l297.254-170.718V163.998C594.605,163.959,594.605,163.92,594.605,163.881z M312.302,625.016v-65.28c0-8.284-6.715-15-15-15c-8.284,0-15,6.716-15,15v65.444L30,482.133V189.457l60.129,33.248	c2.3,1.272,4.79,1.876,7.245,1.876c5.282,0,10.404-2.795,13.141-7.745c4.009-7.25,1.381-16.376-5.869-20.385l-57.949-32.042	L297.05,33.829l250.766,130.554l-58.289,32.05c-7.259,3.992-9.908,13.112-5.917,20.371c2.731,4.967,7.863,7.776,13.158,7.776	c2.442,0,4.922-0.599,7.214-1.859l60.623-33.333v290.728L312.302,625.016z"/></svg>