<svg version="1.1" id="Слой_11__x28_копия_x29_" xmlns="http://www.w3.org/2000/svg" x="0" y="0" viewBox="0 0 679.579 656.439" xml:space="preserve"><path d="M303.09,519.226h-28.421v-89.475h80.738c6.903,0,12.5-5.597,12.5-12.5s-5.597-12.5-12.5-12.5h-80.738v-92.583h108.708	c0.35,0,0.694-0.024,1.036-0.052c0.343,0.028,0.686,0.052,1.036,0.052c6.903,0,12.5-5.597,12.5-12.5V47.307	C397.95,21.222,376.728,0,350.642,0H47.307C21.222,0,0,21.222,0,47.307v449.611c0,26.086,21.222,47.308,47.307,47.308H303.09	c6.903,0,12.5-5.597,12.5-12.5S309.993,519.226,303.09,519.226z M249.669,519.226h-99.834v-89.475h99.834V519.226z M249.669,404.751	h-99.834v-92.583h99.834V404.751z M249.669,196.658v90.511h-99.834v-90.511H249.669z M274.669,196.658h98.281v90.511h-98.281	V196.658z M25,496.918V47.307C25,35.007,35.007,25,47.307,25h303.335c12.301,0,22.308,10.007,22.308,22.307v124.351H72.586	c-6.904,0-12.5,5.596-12.5,12.5s5.596,12.5,12.5,12.5h52.249v90.511H72.586c-6.904,0-12.5,5.596-12.5,12.5s5.596,12.5,12.5,12.5	h52.249v92.583H72.586c-6.903,0-12.5,5.597-12.5,12.5s5.597,12.5,12.5,12.5h52.249v89.475H47.307	C35.007,519.226,25,509.219,25,496.918z M232.575,123.553V80.042c0-6.903,5.596-12.5,12.5-12.5s12.5,5.597,12.5,12.5v43.511	c0,6.903-5.596,12.5-12.5,12.5S232.575,130.457,232.575,123.553z M300.432,123.553V80.042c0-6.903,5.596-12.5,12.5-12.5	s12.5,5.597,12.5,12.5v43.511c0,6.903-5.596,12.5-12.5,12.5S300.432,130.457,300.432,123.553z M678.867,274.995	c-2.284-20.683-10.063-40.398-22.496-57.014c-2.47-3.301-6.399-5.167-10.528-5c-4.119,0.171-7.89,2.363-10.076,5.858l-43.045,68.781	c-3.477,5.555-8.604,9.128-14.438,10.061c-5.834,0.931-11.818-0.863-16.854-5.056c-11.451-9.536-14.446-28.263-6.542-40.895	l37.421-59.794c2.197-3.511,2.513-7.881,0.843-11.671c-1.669-3.79-5.107-6.506-9.181-7.254c-11.965-2.196-24.196-2.504-36.362-0.916	c-29.693,3.878-56.493,18.931-75.462,42.385c-18.963,23.445-28.091,52.799-25.703,82.653c0.814,10.197,2.945,20.212,6.331,29.767	c6.271,17.699,4.096,37.072-5.967,53.151L320.905,581.227c-11.424,18.255-7.41,43.349,9.138,57.129l8.388,6.985	c8.733,7.272,19.078,11.098,29.713,11.098c2.354,0,4.721-0.188,7.088-0.565c13.067-2.09,24.317-9.721,31.68-21.485l129.166-206.394	c8.408-13.435,22.79-22.399,38.481-23.982c0.452-0.046,0.904-0.094,1.344-0.144C639.734,396.696,685.922,338.883,678.867,274.995z M573.097,379.027c-0.355,0.04-0.712,0.078-1.057,0.113c-23.312,2.352-44.678,15.656-57.153,35.593L385.72,621.126	c-3.476,5.555-8.603,9.128-14.436,10.061c-5.83,0.934-11.817-0.862-16.854-5.057l-8.389-6.985	c-6.785-5.65-8.628-17.171-3.944-24.655l125.901-201.177c14.133-22.581,17.172-49.831,8.34-74.762	c-2.66-7.505-4.334-15.381-4.976-23.41c-3.899-48.766,31.014-91.925,79.483-98.257c3.112-0.406,6.229-0.655,9.342-0.747	l-26.493,42.332c-14.426,23.053-9.161,55.966,11.736,73.368c10.664,8.881,23.734,12.623,36.801,10.532	c13.066-2.09,24.317-9.72,31.681-21.485l32.227-51.494c4.114,8.919,6.79,18.494,7.878,28.35	C659.563,327.952,623.269,373.388,573.097,379.027z"/></svg>