<svg version="1.1" id="Слой_12" xmlns="http://www.w3.org/2000/svg" x="0" y="0" viewBox="0 0 646.008 610.383" xml:space="preserve"><path d="M346.411,200.529l-39.592,97.313h-58.117c-6.904,0-12.5,5.597-12.5,12.5s5.596,12.5,12.5,12.5h47.946l-67.812,166.674	c-2.602,6.395,0.473,13.688,6.868,16.289c1.543,0.628,3.138,0.925,4.707,0.925c4.934,0,9.609-2.94,11.583-7.792l71.645-176.096	h61.744v19.098c0,6.903,5.597,12.5,12.5,12.5s12.5-5.597,12.5-12.5v-19.098h62.072l72.9,176.164	c1.993,4.816,6.647,7.724,11.555,7.724c1.593,0,3.212-0.306,4.774-0.953c6.379-2.64,9.41-9.95,6.771-16.329l-68.944-166.605h47.034	c6.903,0,12.5-5.597,12.5-12.5s-5.597-12.5-12.5-12.5h-57.379l-40.285-97.351c16.387-14.314,26.769-35.337,26.769-58.753	c0-28.106-14.942-52.782-37.295-66.52V25.19c0-13.89-11.301-25.19-25.19-25.19h-30.562c-13.89,0-25.19,11.3-25.19,25.19V74.9	c-22.64,13.673-37.812,38.515-37.812,66.838C319.598,165.174,329.999,186.214,346.411,200.529z M462.108,297.841h-51.727v-18.579	c0-6.904-5.597-12.5-12.5-12.5s-12.5,5.596-12.5,12.5v18.579h-51.573l34.155-83.95c9.15,3.775,19.162,5.871,29.658,5.871	c10.525,0,20.564-2.107,29.734-5.901L462.108,297.841z M382.41,25.19c0-0.105,0.085-0.19,0.19-0.19h30.562	c0.105,0,0.19,0.085,0.19,0.19v40.115c-5.083-1.045-10.344-1.594-15.73-1.594c-5.205,0-10.289,0.523-15.212,1.5V25.19z M397.622,88.712c29.238,0,53.025,23.787,53.025,53.025c0,29.238-23.787,53.025-53.025,53.025	c-29.237,0-53.024-23.787-53.024-53.025C344.598,112.499,368.385,88.712,397.622,88.712z M187.511,141.737	c0-6.903,5.597-12.5,12.5-12.5h80.288c6.904,0,12.5,5.597,12.5,12.5s-5.596,12.5-12.5,12.5h-80.288	C193.108,154.237,187.511,148.641,187.511,141.737z M646.008,141.737v456.146c0,6.903-5.597,12.5-12.5,12.5h-515.77	c-0.05,0-0.101,0-0.151-0.001C53.146,609.603,0.72,556.539,0.72,492.093l0-0.456L0.019,170.416C0.006,169.643,0,168.871,0,168.098	C0,128.752,15.484,91.6,43.599,63.484c28.115-28.115,65.268-43.599,104.614-43.599c0.601,0,1.201,0.004,1.801,0.011	c6.842,0.085,12.344,5.656,12.344,12.499v400.771c0,3.361-1.354,6.593-3.756,8.944c-2.402,2.353-5.643,3.649-9.011,3.576	c-0.641-0.014-1.282-0.021-1.923-0.021c-31.515,0-60.92,16.931-76.743,44.186c-3.466,5.972-11.115,8.001-17.086,4.535	c-5.97-3.466-8-11.116-4.535-17.086c18.543-31.942,51.642-52.821,88.055-56.162V45.359C74.483,50.874,25,103.816,25,168.098	c0,0.669,0.006,1.338,0.017,2.006c0.001,0.057,0.001,0.115,0.001,0.172l0.702,321.377l0,0.439c0,50.801,41.31,92.636,92.098,93.29	h503.19V154.237H517.997c-6.903,0-12.5-5.597-12.5-12.5c0-6.904,5.597-12.5,12.5-12.5h115.511	C640.411,129.237,646.008,134.833,646.008,141.737z M397.694,173.539c16.961,0,30.759-13.798,30.759-30.759	c0-16.96-13.798-30.759-30.759-30.759s-30.759,13.798-30.759,30.759C366.936,159.74,380.733,173.539,397.694,173.539z M397.694,137.021c3.176,0,5.759,2.583,5.759,5.759c0,3.176-2.583,5.759-5.759,5.759s-5.759-2.583-5.759-5.759	C391.936,139.604,394.519,137.021,397.694,137.021z"/></svg>