<svg version="1.1" id="Слой_15" xmlns="http://www.w3.org/2000/svg" x="0" y="0" viewBox="0 0 536.993 682.667" xml:space="preserve"><path d="M357.332,200.078c-26.503-16.353-56.973-24.997-88.116-24.997c-44.549,0-86.613,17.53-118.444,49.361 s-49.361,73.895-49.361,118.444c0,44.549,17.53,86.614,49.361,118.445s73.896,49.361,118.444,49.361s86.613-17.53,118.444-49.361 s49.361-73.896,49.361-118.445c0-8.477-0.65-17.021-1.933-25.395c-1.255-8.189-8.905-13.812-17.098-12.557 c-8.188,1.254-13.811,8.909-12.557,17.098c1.053,6.876,1.587,13.892,1.587,20.854c0,75.987-61.819,137.806-137.806,137.806 S131.41,418.873,131.41,342.887c0-75.986,61.819-137.806,137.806-137.806c25.576,0,50.599,7.099,72.362,20.528 c7.052,4.352,16.292,2.161,20.643-4.888C366.57,213.67,364.382,204.429,357.332,200.078z"/><path d="M202.186,284.981c-4.803-6.75-14.169-8.329-20.918-3.524c-6.75,4.803-8.328,14.168-3.524,20.918l79.251,111.367 c2.687,3.775,6.967,6.097,11.596,6.29c0.209,0.009,0.417,0.013,0.626,0.013c4.403,0,8.598-1.938,11.454-5.315L430.887,237.06 c5.349-6.326,4.556-15.791-1.771-21.139c-6.328-5.349-15.79-4.556-21.14,1.77L270.235,380.607L202.186,284.981z"/><path d="M521.993,114.476c-114.669,0-193.483-35.227-240.948-107.693c-4.539-6.93-13.836-8.869-20.767-4.329 c-6.93,4.539-8.868,13.836-4.329,20.767c51.286,78.301,133.51,117.987,251.044,121.063v249.884 c0,83.717-65.134,149.397-119.773,189.755c-51.163,37.789-103.07,61.158-118.723,67.807c-15.659-6.652-67.563-30.02-118.723-67.807 C95.134,543.565,30,477.884,30,394.167V144.286c88.306-2.278,155.896-24.976,206.291-69.193c6.227-5.463,6.846-14.941,1.382-21.168 c-5.463-6.227-14.94-6.846-21.168-1.382C169.007,94.218,103.095,114.476,15,114.476c-8.284,0-15,6.716-15,15v264.691 c0,42.957,14.202,85.008,42.212,124.984c21.902,31.26,52.276,61.305,90.28,89.301c64.048,47.183,127.163,72.14,129.818,73.179 c1.795,0.703,3.643,1.036,5.462,1.036c0.242,0,0.482-0.016,0.722-0.027c0.242,0.012,0.483,0.027,0.725,0.027 c1.818,0,3.668-0.333,5.463-1.036c2.655-1.039,65.771-25.995,129.818-73.179c38.004-27.996,68.379-58.042,90.28-89.301 c28.01-39.977,42.212-82.027,42.212-124.984V129.476C536.993,121.192,530.277,114.476,521.993,114.476z"/></svg>