<svg version="1.1" id="Слой_11" xmlns="http://www.w3.org/2000/svg" x="0" y="0" viewBox="0 0 690.352 652.485" xml:space="preserve"><path d="M303.09,519.226h-28.421V312.168h47.586c6.903,0,12.5-5.597,12.5-12.5s-5.597-12.5-12.5-12.5h-47.586v-90.511h98.281v58.464	c0,6.903,5.597,12.5,12.5,12.5s12.5-5.597,12.5-12.5V47.307C397.95,21.222,376.728,0,350.642,0H47.307C21.222,0,0,21.222,0,47.307	v449.611c0,26.086,21.222,47.308,47.307,47.308H303.09c6.903,0,12.5-5.597,12.5-12.5S309.993,519.226,303.09,519.226z M249.669,519.226h-99.834v-89.475h99.834V519.226z M249.669,404.751h-99.834v-92.583h99.834V404.751z M249.669,287.168h-99.834	v-90.511h99.834V287.168z M25,496.918V47.307C25,35.007,35.007,25,47.307,25h303.335c12.301,0,22.308,10.007,22.308,22.307v124.351	H72.586c-6.904,0-12.5,5.596-12.5,12.5s5.596,12.5,12.5,12.5h52.249v90.511H72.586c-6.904,0-12.5,5.597-12.5,12.5	s5.596,12.5,12.5,12.5h52.249v92.583H72.586c-6.903,0-12.5,5.597-12.5,12.5s5.597,12.5,12.5,12.5h52.249v89.475H47.307	C35.007,519.226,25,509.219,25,496.918z M232.575,123.553V80.042c0-6.903,5.596-12.5,12.5-12.5s12.5,5.597,12.5,12.5v43.511	c0,6.903-5.596,12.5-12.5,12.5S232.575,130.457,232.575,123.553z M300.432,123.553V80.042c0-6.903,5.596-12.5,12.5-12.5	s12.5,5.597,12.5,12.5v43.511c0,6.903-5.596,12.5-12.5,12.5S300.432,130.457,300.432,123.553z M458.773,449.727	c-0.661,2.848-0.996,5.776-0.996,8.704c0,21.241,17.28,38.521,38.521,38.521s38.521-17.28,38.521-38.521	s-17.28-38.521-38.521-38.521c-2.832,0-5.668,0.313-8.428,0.934c-6.736,1.507-13.422-2.725-14.934-9.461	c-1.511-6.736,2.725-13.422,9.461-14.934c4.553-1.021,9.23-1.539,13.9-1.539c35.025,0,63.521,28.496,63.521,63.521	s-28.496,63.521-63.521,63.521s-63.521-28.496-63.521-63.521c0-4.828,0.553-9.659,1.645-14.358	c1.561-6.725,8.276-10.916,15.003-9.349C456.149,436.285,460.334,443.002,458.773,449.727z M690.352,441.146v35.605	c0,11.396-8.501,21.249-19.773,22.918l-37.152,5.499c-2.124,6.234-4.674,12.319-7.629,18.205l22.163,29.864	c6.791,9.152,5.835,22.13-2.223,30.188l-25.178,25.178c-8.06,8.059-21.036,9.013-30.188,2.221l-30.166-22.386	c-5.909,2.909-12.014,5.41-18.26,7.484L536.5,632.71c-1.669,11.273-11.521,19.774-22.917,19.774h-35.606	c-11.396,0-21.248-8.501-22.917-19.773l-5.499-37.152c-6.234-2.123-12.319-4.674-18.206-7.629l-29.863,22.162	c-9.153,6.79-22.13,5.835-30.188-2.222l-25.178-25.178c-8.059-8.059-9.014-21.037-2.222-30.188l22.387-30.166	c-2.909-5.908-5.41-12.012-7.484-18.26l-36.789-5.446c-11.273-1.669-19.774-11.521-19.774-22.917V440.11	c0-11.396,8.501-21.248,19.774-22.917l37.152-5.499c2.123-6.234,4.674-12.319,7.629-18.206l-22.163-29.863	c-6.791-9.154-5.834-22.132,2.222-30.188l25.178-25.177c8.059-8.06,21.037-9.014,30.188-2.222l30.166,22.387	c8.394-4.132,17.18-7.443,26.217-9.873c6.67-1.789,13.524,2.159,15.317,8.825c1.793,6.666-2.158,13.524-8.825,15.317	c-9.658,2.598-18.974,6.412-27.687,11.339l-7.075,4.001l-41.741-30.979l-22.941,22.94l30.842,41.558l-4.098,7.106	c-5,8.67-8.894,17.955-11.572,27.595l-2.177,7.828l-51.405,7.609v32.442l51.188,7.578l2.129,7.919	c2.597,9.657,6.411,18.972,11.338,27.686l4.001,7.075l-30.979,41.741l22.94,22.94l41.558-30.841l7.106,4.098	c8.67,5,17.955,8.894,27.595,11.572l7.828,2.177l7.609,51.405h32.442l7.578-51.188l7.919-2.129	c9.654-2.596,18.969-6.41,27.687-11.339l7.074-3.999l41.742,30.977l22.94-22.94L596.1,525.308l4.099-7.106	c4.999-8.67,8.893-17.953,11.571-27.594l2.177-7.828l51.405-7.609v-32.442l-51.188-7.578l-2.129-7.919	c-2.597-9.657-6.411-18.972-11.338-27.686l-4.001-7.075l30.979-41.742l-22.941-22.94l-41.557,30.842l-7.106-4.098	c-8.67-4.999-17.954-8.894-27.596-11.574l-7.827-2.176l-7.609-51.405h-34.024c-6.903,0-12.5-5.596-12.5-12.5s5.597-12.5,12.5-12.5	h35.606c11.396,0,21.248,8.501,22.917,19.774l5.499,37.151c6.235,2.124,12.319,4.674,18.206,7.629l29.863-22.163	c9.154-6.791,22.132-5.835,30.188,2.224l25.177,25.175c8.058,8.058,9.014,21.036,2.223,30.188l-22.388,30.167	c2.909,5.908,5.41,12.012,7.484,18.26l36.788,5.446C681.851,419.898,690.352,429.75,690.352,441.146z"/></svg>