<svg version="1.1" id="Слой_14" xmlns="http://www.w3.org/2000/svg" x="0" y="0" viewBox="0 0 609.736 651.066" xml:space="preserve"><path d="M15,183.843h133.641c8.284,0,15-6.716,15-15s-6.716-15-15-15H30V47.095h59.072c8.284,0,15-6.716,15-15s-6.716-15-15-15H15 c-8.284,0-15,6.716-15,15v136.748C0,177.127,6.716,183.843,15,183.843z"/><path d="M72.776,72.314c-5.537-6.161-15.02-6.667-21.183-1.132c-6.162,5.537-6.669,15.021-1.132,21.183l32.115,35.741 c2.85,3.172,6.909,4.975,11.156,4.975c0.191,0,0.383-0.003,0.575-0.011c4.454-0.17,8.601-2.312,11.317-5.846l79.252-103.079 c5.049-6.567,3.819-15.985-2.749-21.034c-6.566-5.05-15.984-3.819-21.034,2.749l-68.258,88.78L72.776,72.314z"/><path d="M15,415.382h133.641c8.284,0,15-6.716,15-15s-6.716-15-15-15H30V278.634h59.072c8.284,0,15-6.716,15-15s-6.716-15-15-15H15 c-8.284,0-15,6.716-15,15v136.748C0,408.666,6.716,415.382,15,415.382z"/><path d="M182.128,234.649c-6.566-5.05-15.984-3.819-21.034,2.749l-68.258,88.78l-20.059-22.325 c-5.536-6.162-15.021-6.667-21.183-1.132c-6.162,5.537-6.669,15.021-1.132,21.183l32.115,35.741 c2.851,3.173,6.91,4.975,11.157,4.975c0.191,0,0.383-0.004,0.575-0.011c4.454-0.171,8.601-2.313,11.317-5.847l79.252-103.08 C189.927,249.116,188.696,239.698,182.128,234.649z"/><path d="M148.641,621.066H30V514.318h59.072c8.284,0,15-6.716,15-15s-6.716-15-15-15H15c-8.284,0-15,6.716-15,15v136.748 c0,8.284,6.716,15,15,15h133.641c8.284,0,15-6.716,15-15S156.925,621.066,148.641,621.066z"/><path d="M609.676,195.207c-0.641-12.831-6.296-24.582-15.926-33.086l-53.916-47.622c-19.164-16.927-47.973-15.667-65.585,2.871 L179.723,427.346c-1.604,1.688-2.793,3.728-3.473,5.955l-46.619,152.806c-1.681,5.508-0.059,11.491,4.172,15.398 c2.821,2.604,6.471,3.979,10.178,3.979c1.853,0,3.719-0.343,5.504-1.047l154.878-61.123c2.089-0.825,3.966-2.108,5.493-3.755 l287.268-309.845C605.858,220.293,610.316,208.038,609.676,195.207z M275.633,522.4l-41.985,16.569l-45.484-41.916l14.034-46.001 L275.633,522.4z M178.45,528.896l24.203,22.305l-35.253,13.912L178.45,528.896z M575.124,209.318l-22.837,24.632l-53.259-48.251 c-6.142-5.563-15.626-5.094-21.188,1.045c-5.562,6.14-5.095,15.625,1.045,21.188l53.004,48.02L300.888,505.107l-29.956-29.105 L452.76,282.185c5.668-6.042,5.365-15.534-0.677-21.202c-6.041-5.668-15.535-5.366-21.202,0.677L249.411,455.094l-28.428-27.62 l275.013-289.44c6.439-6.777,16.971-7.238,23.978-1.049l53.916,47.622c3.521,3.109,5.588,7.405,5.822,12.096 S578.317,205.873,575.124,209.318z"/></svg>