<svg xmlns="http://www.w3.org/2000/svg" viewBox="0 0 847.381 853.92"><path d="M788.554 808.805h-23.331V469.503a15 15 0 0 0-22.775-12.828l-131.067 79.434v-66.605a15.002 15.002 0 0 0-22.852-12.781L459.612 535.92v-66.417a15.001 15.001 0 0 0-22.992-12.694l-97.9 61.64c-7.01 4.414-9.115 13.675-4.701 20.686 4.413 7.01 13.675 9.114 20.686 4.701l74.908-47.163v66.066a15.002 15.002 0 0 0 22.852 12.781l128.917-79.198v66.417a15 15 0 0 0 22.775 12.828l131.067-79.434v312.671H308.592l-30.298-549.911c-.438-7.952-7.013-14.175-14.977-14.175H135.892c-7.948 0-14.516 6.199-14.975 14.134L89.101 808.805H59.23c-8.284 0-15 6.716-15 15s6.716 15 15 15h729.324c8.284 0 15-6.716 15-15s-6.716-15-15-15zM150.049 274.719h99.071l2.656 48.215H190.28c-8.284 0-15 6.716-15 15s6.716 15 15 15h63.149l25.117 455.871H119.152l30.897-534.086zM360.18 679.265c-8.284 0-15-6.716-15-15s6.716-15 15-15h46.101c8.284 0 15 6.716 15 15s-6.716 15-15 15H360.18zm131.05 0c-8.284 0-15-6.716-15-15s6.716-15 15-15h46.101c8.284 0 15 6.716 15 15s-6.716 15-15 15H491.23zm132.087 0c-8.284 0-15-6.716-15-15s6.716-15 15-15h46.1c8.284 0 15 6.716 15 15s-6.716 15-15 15h-46.1zM184.604 203.776c0-29.294 11.521-56.948 32.441-77.868s48.574-32.441 77.868-32.441c1.756 0 3.505.057 5.252.14 6.783-20.531 19.625-38.892 36.774-52.331 19.369-15.178 43.518-23.537 67.999-23.537 29.293 0 56.948 11.521 77.868 32.441s32.441 48.574 32.441 77.868c0 37.887-20.007 73.817-52.213 93.77a14.93 14.93 0 0 1-7.885 2.251c-5.021 0-9.927-2.52-12.766-7.102-4.363-7.042-2.191-16.288 4.852-20.651 23.446-14.526 38.012-40.685 38.012-68.268 0-44.283-36.026-80.309-80.309-80.309a80.123 80.123 0 0 0-74.948 51.444 110.35 110.35 0 0 1 24.983 12.069c6.949 4.51 8.925 13.8 4.415 20.749-4.51 6.948-13.8 8.925-20.749 4.415a80.13 80.13 0 0 0-43.726-12.947c-44.283 0-80.309 36.026-80.309 80.309 0 8.284-6.716 15-15 15s-15-6.718-15-15.002z"/></svg>