<svg xmlns="http://www.w3.org/2000/svg" viewBox="0 0 847.381 853.92"><path d="M79.252 361.337V126.69c0-8.284 6.716-15 15-15h167.309c8.284 0 15 6.716 15 15s-6.716 15-15 15H109.252v204.647h204.647v-92.741c0-8.284 6.716-15 15-15s15 6.716 15 15v107.741c0 8.284-6.716 15-15 15H94.252c-8.284 0-15-6.716-15-15zM376.926 87.889c-6.553-5.068-15.974-3.865-21.042 2.687l-125.582 162.35-48.042-50.114c-5.733-5.981-15.229-6.181-21.208-.448-5.98 5.733-6.181 15.229-.448 21.208l60.086 62.677a14.999 14.999 0 0 0 22.693-1.202l136.23-176.116c5.069-6.552 3.866-15.973-2.687-21.042zm108.405 288.448h234.647c8.284 0 15-6.716 15-15V253.596c0-8.284-6.716-15-15-15s-15 6.716-15 15v92.741H500.331V141.69H652.64c8.284 0 15-6.716 15-15s-6.716-15-15-15H485.331c-8.284 0-15 6.716-15 15v234.647c0 8.284 6.716 15 15 15zm88.008-173.525c-5.733-5.981-15.229-6.181-21.209-.448-5.979 5.733-6.18 15.229-.447 21.208l60.086 62.677a15 15 0 0 0 22.692-1.202l136.23-176.116c5.069-6.553 3.866-15.974-2.687-21.042s-15.975-3.864-21.042 2.687L621.38 252.926l-48.041-50.114zM328.899 628.12c-8.284 0-15 6.716-15 15v92.741H109.252V531.215h152.309c8.284 0 15-6.716 15-15s-6.716-15-15-15H94.252c-8.284 0-15 6.716-15 15v234.646c0 8.284 6.716 15 15 15h234.647c8.284 0 15-6.716 15-15V643.12c0-8.284-6.716-15-15-15zm48.027-150.705c-6.552-5.069-15.974-3.866-21.042 2.687l-125.582 162.35-48.042-50.113c-5.734-5.979-15.229-6.181-21.208-.447-5.98 5.733-6.181 15.229-.448 21.209l60.086 62.676a15.002 15.002 0 0 0 22.693-1.203l136.23-176.115c5.069-6.554 3.866-15.975-2.687-21.044zM719.979 628.12c-8.284 0-15 6.716-15 15v92.741H500.331V531.215H652.64c8.284 0 15-6.716 15-15s-6.716-15-15-15H485.331c-8.284 0-15 6.716-15 15v234.646c0 8.284 6.716 15 15 15h234.647c8.284 0 15-6.716 15-15V643.12c.001-8.284-6.715-15-14.999-15zm48.026-150.705c-6.553-5.07-15.975-3.865-21.042 2.687l-125.582 162.35-48.042-50.113c-5.733-5.979-15.229-6.181-21.209-.447-5.979 5.733-6.18 15.229-.447 21.209l60.086 62.676a15.003 15.003 0 0 0 22.692-1.203l136.23-176.115c5.07-6.554 3.867-15.975-2.686-21.044z"/></svg>