<svg xmlns="http://www.w3.org/2000/svg" viewBox="0 0 847.381 853.92"><path d="m737.99 557.982-31.974-31.974 30.036-30.036c20.97-20.971 20.97-55.092 0-76.062l-4.201-4.202a53.473 53.473 0 0 0-27.273-14.64 53.773 53.773 0 0 0 3.457-19.012c0-14.366-5.595-27.873-15.754-38.031l-4.201-4.201c-7.161-7.162-15.99-12.042-25.608-14.306a53.808 53.808 0 0 0 3.182-18.299c0-14.366-5.594-27.873-15.753-38.032l-4.201-4.2c-10.158-10.159-23.664-15.753-38.03-15.753-10.083 0-19.735 2.765-28.11 7.919-2.471-8.709-7.121-16.695-13.699-23.272l-4.201-4.202c-10.158-10.158-23.665-15.752-38.031-15.752-14.367 0-27.873 5.594-38.031 15.753l-37.954 37.954-50.898-50.899c-15.261-15.261-22.705-36.779-19.914-57.561a141.796 141.796 0 0 0 1.251-19.85c-.267-37.236-15.377-72.376-42.545-98.947C308.35 13.789 272.836-.548 235.583.016c-17.932.27-35.37 3.888-51.83 10.752a15 15 0 0 0-4.833 24.451l66.466 66.466c13.073 13.074 13.073 34.347 0 47.419-13.074 13.074-34.347 13.073-47.42 0L131.962 83.1a14.998 14.998 0 0 0-24.528 5.021c-6.823 17.005-10.203 34.981-10.048 53.429.306 36.497 14.676 71.017 40.463 97.199 25.792 26.187 60.09 41.073 96.577 41.916 6.512.15 13.069-.148 19.48-.886 10.057-1.157 20.362-.09 29.797 3.083 7.851 2.641 16.358-1.584 18.999-9.437 2.641-7.852-1.584-16.358-9.436-18.999-13.584-4.568-28.379-6.109-42.789-4.451a111.97 111.97 0 0 1-15.359.697c-58.91-1.361-107.239-50.426-107.732-109.375-.054-6.386.43-12.699 1.445-18.904l47.922 47.922c12.386 12.387 28.652 18.579 44.923 18.578 16.267-.001 32.539-6.194 44.923-18.578 24.77-24.77 24.77-65.074 0-89.846L217.9 31.77a110.836 110.836 0 0 1 18.134-1.76c29.214-.431 57.1 10.858 78.526 31.813 21.408 20.937 33.313 48.537 33.522 77.714a111.876 111.876 0 0 1-.985 15.64c-4.029 29.994 6.601 60.936 28.434 82.769l14.061 14.061c-10.059.217-26.742 5.865-57.693 37.135-18.75 18.942-38.339 43.143-49.908 61.652-13.521 21.635-19.996 72.209-25.708 116.83-2.816 21.994-6.303 49.235-9.152 55.952-4.59 5.885-4.179 14.405 1.234 19.818 2.929 2.929 6.767 4.393 10.606 4.393s7.678-1.465 10.607-4.394c7.498-7.498 9.963-21.196 16.462-71.96 4.791-37.424 11.353-88.677 21.392-104.74 10.082-16.131 27.438-37.661 44.219-54.851 21.725-22.254 34.125-28.758 38.078-29.71 4.414 2.131 22.167 13.411 81.984 72.715 22.394 22.201 43.59 44.114 56.052 57.124-4.727 3.046-10.626 6.255-17.251 8.577-20.479 7.175-38.297 2.806-54.462-13.36a3841.45 3841.45 0 0 1-19.671-19.802c-3.717-4.3-7.873-8.568-12.5-12.777-16.843-17.368-20.074-21.451-20.255-21.684.337.434.431.607.431.607l-24.963 16.64c2.41 3.615 14.828 16.846 34.92 37.254 41.607 48.842 11.664 102.296 10.196 104.841-4.17 7.131-1.789 16.297 5.334 20.494a14.933 14.933 0 0 0 7.602 2.079c5.137 0 10.14-2.641 12.937-7.387.514-.871 12.605-21.672 15.349-50.714.785-8.308.835-17.803-.586-27.993 21.253 8.436 41.494 5.247 56.693-.279 6.411-2.331 12.259-5.214 17.366-8.165 1.085 12.119 6.249 23.938 15.505 33.194l4.201 4.201v.001c10.485 10.484 24.258 15.727 38.031 15.727 1.145 0 2.289-.05 3.432-.122-.112 13.918 5.122 27.872 15.718 38.468l4.201 4.2c10.159 10.157 23.666 15.753 38.031 15.753 8.892 0 17.452-2.149 25.096-6.192l33.66 33.66c9.088 9.089 9.088 23.876 0 32.965l-9.324 9.324c-4.402 4.402-10.256 6.827-16.482 6.827s-12.079-2.425-16.482-6.827L538.596 485.59c-5.856-5.858-15.354-5.858-21.213 0-5.858 5.857-5.858 15.355 0 21.213l80.115 80.115c-15.233 14.78-45.619 43.245-81.784 71.685-45.649 35.899-84.133 27.412-86.608 26.812-5.179-1.464-10.491.025-14.334 3.795l-28.988 28.43-186.135-186.133a15 15 0 0 0-21.212 0l-74.59 74.591c-5.858 5.857-5.858 15.355 0 21.213 5.857 5.857 15.355 5.857 21.213 0l63.983-63.984 181.991 181.992a14.961 14.961 0 0 0 8.082 8.082l13.002 13.002-61.911 61.912c-5.858 5.857-5.858 15.355 0 21.213 2.929 2.929 6.768 4.394 10.606 4.394s7.678-1.465 10.606-4.394l72.518-72.519c5.858-5.857 5.858-15.355 0-21.213l-16.94-16.94 23.35-22.9c17.63 1.996 58.853 1.665 103.911-33.77 37.815-29.739 68.893-58.887 84.467-74.039l34.549 34.549c10.068 10.069 23.456 15.614 37.695 15.614s27.627-5.545 37.695-15.614l9.324-9.324c10.069-10.068 15.614-23.456 15.614-37.695s-5.542-27.627-15.612-37.695zM457.916 299.788l48.894-48.894a23.629 23.629 0 0 1 16.818-6.966 23.629 23.629 0 0 1 16.818 6.966l4.201 4.202a23.63 23.63 0 0 1 6.967 16.817c0 6.353-2.475 12.326-6.967 16.819l-48.302 48.302a2431.819 2431.819 0 0 0-6.624-6.57c-11.613-11.47-22.234-21.711-31.805-30.676zm60.192 59.156 72.744-72.743a23.629 23.629 0 0 1 16.818-6.966 23.623 23.623 0 0 1 16.817 6.967l4.201 4.2a23.628 23.628 0 0 1 6.966 16.817 23.629 23.629 0 0 1-6.966 16.818l-10.422 10.422a54.53 54.53 0 0 0-6.248 5.365l-57.121 57.12a3514.424 3514.424 0 0 0-36.789-38zm61.713 97.542-4.201-4.2c-7.976-7.976-9.071-20.246-3.328-29.426l65.217-65.216a23.628 23.628 0 0 1 12.541-3.572 23.627 23.627 0 0 1 16.817 6.966l4.201 4.202a23.63 23.63 0 0 1 6.967 16.817c0 6.353-2.475 12.326-6.967 16.819l-57.61 57.61c-9.273 9.273-24.363 9.273-33.637 0zm61.381 58.272c-.001 0-.001 0 0 0l-4.2-4.199c-9.273-9.273-9.273-24.363-.001-33.638l40-40c4.638-4.637 10.727-6.955 16.818-6.955 6.09 0 12.182 2.319 16.818 6.955l4.2 4.201c9.273 9.273 9.273 24.363.001 33.637l-40.001 40a23.625 23.625 0 0 1-16.816 6.967 23.63 23.63 0 0 1-16.819-6.968z"/></svg>