<svg xmlns="http://www.w3.org/2000/svg" viewBox="0 0 847.381 853.92"><path d="M832.381 757.1h-58.554V478.92c0-21.98-17.883-39.863-39.863-39.863H668.18c-21.98 0-39.862 17.883-39.862 39.863V757.1h-76.704v-46.662h28.509c8.284 0 15-6.716 15-15s-6.716-15-15-15h-28.509v-45.004h28.509c8.284 0 15-6.716 15-15s-6.716-15-15-15h-28.509v-45.005h28.509c8.284 0 15-6.716 15-15s-6.716-15-15-15h-28.509v-45.004h28.509c8.284 0 15-6.716 15-15s-6.716-15-15-15h-28.509v-45.004h28.509c8.284 0 15-6.716 15-15s-6.716-15-15-15h-28.509v-45.005h28.509c8.284 0 15-6.716 15-15s-6.716-15-15-15h-28.509v-86.028h109.574c12.15 0 22.035 9.885 22.035 22.036v147.884c0 8.284 6.716 15 15 15s15-6.716 15-15V241.424c0-28.693-23.343-52.036-52.035-52.036H551.613v-56.483c0-36.262-29.501-65.763-65.764-65.763H436.64c-36.262 0-65.763 29.501-65.763 65.763v154.36c0 8.284 6.716 15 15 15s15-6.716 15-15v-154.36c0-19.72 16.043-35.763 35.763-35.763h49.209c19.72 0 35.764 16.043 35.764 35.763v18.67h-70.482c-8.284 0-15 6.716-15 15s6.716 15 15 15h70.482v22.794l-.001.019.001.019v24.864h-70.482c-8.284 0-15 6.716-15 15s6.716 15 15 15h70.482v61.125l-.001.019.001.019V395.4l-.001.019.001.019v74.966l-.001.019.001.019v74.965l-.001.019.001.019v74.966l-.001.019.001.019v74.965l-.001.019.001.019V757.1h-69.482V553.489h12.998c8.284 0 15-6.716 15-15v-79.77c0-8.284-6.716-15-15-15h-16.035c-17.233-58.986-61.784-106.292-119.697-127.037V291.41c0-8.284-6.716-15-15-15h-99.453c-8.284 0-15 6.716-15 15v25.083C141.765 337.14 97.018 384.519 79.728 443.719H63.173c-8.284 0-15 6.716-15 15v79.77c0 8.284 6.716 15 15 15h13.516V757.1H15c-8.284 0-15 6.716-15 15s6.716 15 15 15h817.381c8.284 0 15-6.716 15-15s-6.716-15-15-15zM279.41 689.636c38.351-3.023 75.289-17.55 105.353-41.683 14.353-11.521 26.92-25.037 37.368-39.992V757.1H279.41v-67.464zm-60.292-347.814a15 15 0 0 0 10.825-14.407V306.41h69.453v21.159a15.002 15.002 0 0 0 10.781 14.395c50.427 14.78 90.209 52.936 107.415 101.755h-184.52c-8.284 0-15 6.716-15 15s6.716 15 15 15H450.13v49.77H78.173v-49.77h81.345c8.284 0 15-6.716 15-15s-6.716-15-15-15h-48.291c17.26-49 57.224-87.214 107.891-101.897zM106.689 607.891c23.754 33.927 58.211 60.046 98.549 73.072 7.883 2.541 16.338-1.781 18.884-9.665 2.545-7.884-1.782-16.338-9.665-18.884-47.673-15.394-85.639-52.435-102.653-98.925h305.258c-21.353 59.069-74.741 100.359-137.651 106.064v-55.281c0-8.284-6.716-15-15-15s-15 6.716-15 15V757.1H106.689V607.891zM658.317 757.1V478.92c0-5.438 4.424-9.863 9.862-9.863h65.784c5.438 0 9.863 4.425 9.863 9.863V757.1h-85.509z"/></svg>