<svg xmlns="http://www.w3.org/2000/svg" viewBox="0 0 847.381 853.92"><path d="M441.82 491.942c57.255 0 103.835-46.58 103.835-103.835v-63.712c0-57.255-46.58-103.835-103.835-103.835H246.259v-23.849c0-8.284-6.716-15-15-15s-15 6.716-15 15v23.849h-50.288v-23.849c0-8.284-6.716-15-15-15s-15 6.716-15 15v23.849h-.798c-57.255 0-103.835 46.58-103.835 103.835v63.712c0 57.255 46.58 103.835 103.835 103.835H441.82zm0-241.382c40.713 0 73.835 33.122 73.835 73.835v63.712c0 40.713-33.122 73.835-73.835 73.835H246.259V250.56H441.82zm-225.561 0v26.461h-21.777c-8.284 0-15 6.716-15 15s6.716 15 15 15h21.777v34.23h-21.777c-8.284 0-15 6.716-15 15s6.716 15 15 15h21.777v34.23h-21.777c-8.284 0-15 6.716-15 15s6.716 15 15 15h21.777v26.461h-50.288V250.56h50.288zM61.338 388.107v-63.712c0-40.713 33.122-73.835 73.835-73.835h.798v211.382h-.798c-40.713 0-73.835-33.122-73.835-73.835zm755.741 38.853v184.657c0 8.284-6.716 15-15 15h-53.353a15.002 15.002 0 0 1-13.922-9.415l-30.928-77.089H565.878c-8.284 0-15-6.716-15-15s6.716-15 15-15h148.144c6.128 0 11.64 3.728 13.922 9.415l30.928 77.089h28.208V430.595l-70.293-136.524h-115.19V467.1c0 8.284-6.716 15-15 15s-15-6.716-15-15V279.071c0-8.284 6.716-15 15-15h139.338a14.998 14.998 0 0 1 13.336 8.134l76.145 147.889a15.006 15.006 0 0 1 1.663 6.866zm-149.18-95.572v46.122h59.071c8.284 0 15 6.716 15 15s-6.716 15-15 15h-74.071c-8.284 0-15-6.716-15-15v-61.122c0-8.284 6.716-15 15-15s15 6.716 15 15zM379.662 557.769c-24.282 0-45.18 14.741-54.232 35.741h-54.443c-9.052-21-29.95-35.741-54.232-35.741s-45.18 14.741-54.232 35.741h-32.811v-69.433c0-8.284-6.716-15-15-15s-15 6.716-15 15v84.433c0 8.284 6.716 15 15 15h43.407c3.344 29.398 28.358 52.316 58.636 52.316s55.292-22.918 58.637-52.316h45.634c3.344 29.398 28.358 52.316 58.637 52.316 32.549 0 59.028-26.479 59.028-59.028s-26.48-59.029-59.029-59.029zm-162.907 88.058c-16.006 0-29.029-13.022-29.029-29.028 0-16.007 13.022-29.029 29.029-29.029 16.007 0 29.029 13.022 29.029 29.029 0 16.005-13.022 29.028-29.029 29.028zm162.907 0c-16.007 0-29.029-13.022-29.029-29.028 0-16.007 13.022-29.029 29.029-29.029 16.006 0 29.029 13.022 29.029 29.029 0 16.005-13.023 29.028-29.029 29.028zm270.968-88.058c-22.443 0-41.997 12.592-51.978 31.079h-100.15l-25.837-67.539a15 15 0 0 0-14.01-9.641H198.626c-8.284 0-15 6.716-15 15s6.716 15 15 15h249.707l25.837 67.539a15 15 0 0 0 14.01 9.641h103.473c1.086 31.602 27.116 56.979 58.977 56.979 32.549 0 59.029-26.479 59.029-59.028s-26.48-59.03-59.029-59.03zm0 88.058c-16.007 0-29.029-13.022-29.029-29.028 0-16.007 13.022-29.029 29.029-29.029s29.029 13.022 29.029 29.029c0 16.005-13.022 29.028-29.029 29.028zM320.943 186.87c0-8.284 6.716-15 15-15h69.877c8.284 0 15 6.716 15 15s-6.716 15-15 15h-69.877c-8.284 0-15-6.716-15-15z"/></svg>