<svg xmlns="http://www.w3.org/2000/svg" viewBox="0 0 847.381 853.92"><path d="m277.805 172.292 3.5-39.884c.68-7.746 7.167-13.688 14.942-13.688h89.094c7.776 0 14.263 5.942 14.942 13.688l6.357 72.446a230.751 230.751 0 0 1 19.397 6.745 230.845 230.845 0 0 1 20.856 9.558l54.007-45.293c5.957-4.997 14.747-4.612 20.245.887l31.804 31.804c5.858 5.858 5.858 15.355 0 21.213-5.858 5.858-15.356 5.858-21.213 0l-22.087-22.087-50.827 42.626a14.943 14.943 0 0 1-9.631 3.507c-2.215 0-4.417-.498-6.442-1.458a15.026 15.026 0 0 1-4.099-1.56 200.619 200.619 0 0 0-23.733-11.334 200.53 200.53 0 0 0-25.015-8.122c-5.56-1.408-9.596-5.754-10.881-10.96a14.936 14.936 0 0 1-1.622-5.58l-5.799-66.08h-61.611l-2.299 26.195c-.724 8.253-8.005 14.359-16.253 13.631-8.254-.725-14.357-8.002-13.632-16.254zM115.339 287.969a14.968 14.968 0 0 0 11.501 5.362c3.401 0 6.821-1.151 9.631-3.507 6.348-5.323 7.178-14.785 1.854-21.132l-13.116-15.639 43.565-43.566 50.827 42.626c5.379 4.511 12.985 4.588 18.423.648a15.007 15.007 0 0 0 4.304-1.622 200.81 200.81 0 0 1 24.328-11.672 200.86 200.86 0 0 1 25.677-8.29c8.037-2.008 12.925-10.151 10.917-18.188-2.008-8.038-10.149-12.921-18.188-10.917a230.708 230.708 0 0 0-29.528 9.534 230.888 230.888 0 0 0-24.096 11.281l-53.914-45.215c-5.958-4.998-14.748-4.612-20.245.887L94.28 241.556c-5.499 5.499-5.883 14.287-.887 20.245l21.946 26.168zm221.968 411.67h-30.806l-5.799-66.08a14.895 14.895 0 0 0-2.962-7.687c-1.847-3.671-5.171-6.581-9.449-7.745a200.714 200.714 0 0 1-24.169-8.267 200.992 200.992 0 0 1-22.921-11.284 14.91 14.91 0 0 0-8.212-1.964c-4.324-.879-8.991.139-12.634 3.195l-50.827 42.626-43.565-43.565 42.626-50.827c3.577-4.266 4.363-9.934 2.576-14.811a14.933 14.933 0 0 0-1.934-5.331 200.668 200.668 0 0 1-12.62-24.862 200.491 200.491 0 0 1-9.039-26.376 15.026 15.026 0 0 0-.821-2.266c-1.331-6.286-6.629-11.24-13.363-11.831l-66.081-5.799v-61.612l66.081-5.799c7.778-.682 13.641-7.187 13.684-14.841.394-.812.725-1.666.974-2.567a200.582 200.582 0 0 1 8.19-23.734c3.21-7.7 6.945-15.276 11.099-22.52 4.122-7.187 1.637-16.353-5.549-20.475-7.187-4.12-16.352-1.637-20.475 5.549a230.703 230.703 0 0 0-12.765 25.899 230.994 230.994 0 0 0-8.404 23.736l-69.147 6.068c-7.747.68-13.689 7.167-13.689 14.942v89.094c0 7.776 5.942 14.263 13.689 14.942l69.629 6.11a230.736 230.736 0 0 0 8.353 23.159 230.742 230.742 0 0 0 10.414 21.451l-45.245 53.95c-4.997 5.958-4.612 14.747.886 20.245l62.998 62.999a14.97 14.97 0 0 0 10.61 4.394c3.413 0 6.836-1.159 9.635-3.507l54.758-45.923a231.214 231.214 0 0 0 19.585 9.239 230.616 230.616 0 0 0 18.925 6.892l6.274 71.492c.68 7.746 7.167 13.688 14.942 13.688h44.547c8.284 0 15-6.716 15-15s-6.715-14.997-14.999-14.997zm-102.755-376.94c-6.517-5.115-15.946-3.98-21.062 2.535-22.277 28.375-34.546 63.869-34.546 99.945 0 42.969 16.908 83.54 47.608 114.24 30.701 30.701 71.272 47.608 114.241 47.608 10.4 0 20.853-1.013 31.066-3.009 8.13-1.59 13.433-9.47 11.843-17.6-1.589-8.131-9.47-13.428-17.599-11.844a132.215 132.215 0 0 1-25.31 2.452c-72.702 0-131.849-59.147-131.849-131.849 0-29.389 9.995-58.305 28.143-81.419 5.116-6.514 3.981-15.943-2.535-21.059zm237.641 91.596c.649 7.835 7.209 13.764 14.933 13.763.415 0 .834-.018 1.255-.052 8.256-.685 14.395-7.932 13.711-16.188-3.346-40.391-21.749-77.88-51.818-105.562-30.069-27.682-68.949-42.927-109.479-42.927-26.119 0-52.147 6.421-75.271 18.568-7.333 3.853-10.156 12.921-6.303 20.255 3.853 7.333 12.92 10.157 20.255 6.303 18.837-9.896 40.041-15.126 61.319-15.126 68.063.001 125.78 53.135 131.398 120.966zm-53.723 10.884c0-42.831-34.845-77.676-77.676-77.676a77.616 77.616 0 0 0-22.476 3.323c-7.93 2.397-12.415 10.769-10.018 18.699 2.397 7.93 10.77 12.415 18.699 10.018a47.605 47.605 0 0 1 13.794-2.04c26.289 0 47.676 21.388 47.676 47.676s-21.388 47.676-47.676 47.676-47.676-21.388-47.676-47.676a47.512 47.512 0 0 1 3.261-17.331c3.01-7.718-.807-16.415-8.525-19.425-7.718-3.008-16.415.808-19.425 8.525a77.396 77.396 0 0 0-5.311 28.23c0 42.831 34.845 77.676 77.676 77.676 42.832.001 77.677-34.844 77.677-77.675zm262.396 37.095c-.504.012-1.04.02-1.576.023-17.726.169-34.767 8.749-45.568 22.952L465.653 706.238c-9.713 12.771-23.473 20.374-38.745 21.408a52.49 52.49 0 0 1-3.539.12c-13.987 0-27.272-5.644-37.739-16.11l-8.802-8.802c-17.623-17.622-19.609-46.965-4.523-66.801l163.82-215.404c12.954-17.034 17.385-38.576 12.155-59.103a134.245 134.245 0 0 1-4.128-34.651c.385-34.342 13.868-66.911 37.965-91.708 24.106-24.806 56.279-39.202 90.593-40.537 14.059-.544 27.995 1.081 41.426 4.837a14.998 14.998 0 0 1 7.901 23.526l-48.69 64.022c-10.073 13.244-8.643 34.372 3.123 46.138 5.13 5.129 11.529 7.713 18.037 7.271 6.503-.44 12.502-3.862 16.894-9.637l56.009-73.646a14.964 14.964 0 0 1 12.681-5.901 14.998 14.998 0 0 1 12.036 7.124c12.466 20.27 19.296 43.595 19.75 67.453 1.4 73.693-57.371 134.898-131.011 136.437zm101.016-135.866a103.879 103.879 0 0 0-5.513-31.469l-41.09 54.029c-9.713 12.771-23.474 20.374-38.746 21.408-15.286 1.035-29.933-4.646-41.276-15.99-10.804-10.803-17.354-25.614-18.442-41.704-1.089-16.089 3.404-31.647 12.653-43.808l33.619-44.205a104.847 104.847 0 0 0-9.211-.042c-55.299 2.15-99.104 47.219-99.725 102.603a104.256 104.256 0 0 0 3.2 26.908c7.503 29.448 1.18 60.308-17.347 84.67l-163.82 215.404c-5.885 7.737-5.017 20.554 1.857 27.428l8.802 8.802c5.13 5.13 11.536 7.711 18.039 7.271 6.502-.439 12.501-3.862 16.893-9.637l168.068-220.988c16.372-21.528 42.233-34.534 69.178-34.79.405-.004.795-.01 1.185-.019 57.166-1.193 102.763-48.687 101.676-105.871z"/></svg>