<svg version="1.1" id="Слой_17" xmlns="http://www.w3.org/2000/svg" x="0" y="0" viewBox="0 0 553.279 550.259" xml:space="preserve"><path d="M543.691,474.858l-45.862,56.212c-9.773,12.339-24.364,19.189-39.539,19.189c-4.679,0-9.412-0.651-14.077-1.993	c-81.173-23.354-155.718-62.019-221.563-114.923c-35.065-28.173-67.196-60.179-95.501-95.13l-9.988-12.333	C64.584,260.959,25.883,187.43,2.134,107.336c-6.18-20.843,1.429-44.042,18.098-55.28l13.212-9.54	c0.425-0.387,0.871-0.758,1.359-1.092c5.7-3.896,13.479-2.431,17.373,3.269l69.21,101.295c3.895,5.7,2.431,13.478-3.269,17.373	c-2.157,1.474-4.612,2.18-7.041,2.18c-3.99,0-7.911-1.906-10.332-5.449l-61.92-90.625l-4.135,2.986	c-0.131,0.094-0.263,0.186-0.397,0.275c-6.71,4.461-11.608,15.968-8.188,27.501c22.812,76.933,59.984,147.56,110.485,209.917	l9.988,12.333c27.188,33.571,58.05,64.314,91.731,91.376c63.247,50.814,134.849,87.954,212.818,110.386	c10.024,2.885,20.68-0.545,27.142-8.738c0.043-0.055,0.086-0.108,0.13-0.162l3.925-4.811l-89.216-58.152	c-5.784-3.77-7.416-11.514-3.646-17.297c3.771-5.784,11.515-7.418,17.297-3.646l91.46,59.614l26.174-32.08	c0.051-0.062,0.103-0.124,0.155-0.186c2.917-3.438,4.194-7.791,3.598-12.26c-0.596-4.47-2.972-8.336-6.689-10.889l-97.093-66.663	c-6.56-4.503-14.954-4.901-21.911-1.039l-59.03,32.782c-4.519,2.51-10.121,1.979-14.088-1.34	c-67.43-56.399-124.664-113.803-174.979-175.501c-3.244-3.953-3.774-9.518-1.278-14.013l32.782-59.03	c3.863-6.956,3.465-15.352-1.039-21.911l-66.664-97.094c-2.552-3.716-6.419-6.092-10.888-6.688	c-4.471-0.595-8.823,0.681-12.261,3.599c-0.249,0.211-0.506,0.412-0.77,0.604l-8.21,5.929c-5.597,4.042-13.41,2.781-17.452-2.816	c-4.042-5.597-2.78-13.411,2.816-17.452l7.85-5.668c8.72-7.205,20.11-10.473,31.335-8.975c11.403,1.522,21.678,7.834,28.189,17.318	l66.664,97.094c9.907,14.429,10.782,32.898,2.285,48.199l-28.653,51.596c46.356,56.004,98.743,108.509,159.75,160.116l51.504-28.603	c15.3-8.498,33.771-7.622,48.199,2.285l97.093,66.663c9.484,6.513,15.797,16.787,17.318,28.19	C554.439,454.574,551.075,466.099,543.691,474.858z M316.902,128.73c24.891,3.307,48.377,14.905,66.132,32.66	c17.346,17.347,28.866,40.266,32.437,64.538c0.914,6.213,6.253,10.682,12.352,10.682c0.605,0,1.219-0.044,1.835-0.135	c6.83-1.005,11.553-7.356,10.548-14.187c-4.349-29.55-18.374-57.456-39.493-78.576c-21.617-21.617-50.212-35.739-80.517-39.765	c-6.855-0.911-13.129,3.901-14.038,10.745C305.249,121.536,310.059,127.821,316.902,128.73z M321.588,52.096	c43.591,4.533,84.664,24.097,115.654,55.086c30.68,30.68,50.197,71.326,54.957,114.451c0.706,6.396,6.12,11.129,12.409,11.129	c0.458,0,0.921-0.025,1.387-0.077c6.862-0.757,11.811-6.934,11.054-13.796c-5.382-48.752-27.446-94.702-62.129-129.385	c-35.034-35.033-81.467-57.149-130.746-62.275c-6.874-0.708-13.012,4.274-13.726,11.14	C309.733,45.236,314.721,51.382,321.588,52.096z"/></svg>