<svg version="1.1" id="Слой_3" xmlns="http://www.w3.org/2000/svg" x="0" y="0" viewBox="0 0 132.964 132.964" xml:space="preserve"><path d="M66.482,0C29.765,0,0,29.765,0,66.482c0,36.717,29.765,66.482,66.482,66.482c36.717,0,66.482-29.765,66.482-66.482	C132.964,29.765,103.199,0,66.482,0z M66.482,119.964C36.992,119.964,13,95.972,13,66.482C13,36.992,36.992,13,66.482,13	c29.49,0,53.482,23.992,53.482,53.482C119.964,95.972,95.972,119.964,66.482,119.964z M98.756,93.1	c-1.285,1.559-3.145,2.364-5.019,2.364c-1.456,0-2.921-0.486-4.132-1.485L62.346,71.496c-1.497-1.234-2.364-3.073-2.364-5.014	V33.113c0-3.59,2.91-6.5,6.5-6.5c3.59,0,6.5,2.91,6.5,6.5v30.304l24.895,20.532C100.646,86.234,101.04,90.33,98.756,93.1z"/></svg>