<svg version="1.1" id="Слой_18" xmlns="http://www.w3.org/2000/svg" x="0" y="0" viewBox="0 0 644.331 644.318" xml:space="preserve"><path d="M644.331,322.152c0,43.201-8.579,85.245-25.498,124.962c-16.315,38.298-39.627,72.757-69.288,102.418	s-64.119,52.973-102.417,69.288c-39.378,16.774-81.043,25.339-123.855,25.484c-0.092,0.002-0.18,0.014-0.272,0.014	c-0.056,0-0.109-0.008-0.165-0.008c-0.224,0-0.446,0.008-0.67,0.008c-43.201,0-85.245-8.579-124.962-25.498	c-38.298-16.315-72.756-39.627-102.417-69.288c-29.662-29.661-52.973-64.12-69.288-102.418C8.579,407.397,0,365.353,0,322.152	c0-36.029,6.014-71.542,17.875-105.553c11.555-33.132,28.363-64.039,49.959-91.861c21.597-27.823,47.368-51.772,76.598-71.185	c30.006-19.927,62.917-34.562,97.82-43.499c8.026-2.053,16.197,2.786,18.252,10.811c2.055,8.025-2.785,16.197-10.811,18.252	C125.211,70.991,36.873,179.984,30.397,307.152h68.517c8.284,0,15,6.716,15,15s-6.716,15-15,15H30.38	C37.976,486.618,158.425,606.793,308,613.969v-74.781c0-8.284,6.716-15,15-15c8.285,0,15,6.716,15,15v74.697	c148.8-7.987,268.382-127.823,275.95-276.733h-71.122c-8.284,0-15-6.716-15-15s6.716-15,15-15h71.112	C606.368,159.56,487.766,39.69,340.279,30.547v69.907c0,8.284-6.716,15-15,15s-15-6.716-15-15V15.002	c0-4.004,1.601-7.843,4.447-10.66s6.695-4.427,10.705-4.339c42.906,0.435,84.601,9.324,123.925,26.419	c37.936,16.492,72.036,39.872,101.354,69.489s52.351,63.953,68.458,102.054C635.865,237.461,644.331,279.243,644.331,322.152z M214.862,251.202c-4.569,6.91-2.672,16.216,4.238,20.786l94.792,62.685c2.522,1.668,5.403,2.488,8.271,2.488	c3.615,0,7.209-1.304,10.042-3.854l151.252-136.239c6.155-5.544,6.65-15.029,1.106-21.185c-5.544-6.156-15.029-6.649-21.185-1.106	L320.754,303.244l-85.106-56.28C228.739,242.396,219.432,244.293,214.862,251.202z"/></svg>