<svg version="1.1" id="Слой_19" xmlns="http://www.w3.org/2000/svg" x="0" y="0" viewBox="0 0 802.301 421.079" xml:space="preserve"><path d="M790.881,15.956C782.053,5.816,769.279,0,755.835,0H270.367c-6.162,0-11.697,3.768-13.956,9.501s-0.782,12.264,3.724,16.467	l223.77,208.749c5.213,4.861,13.13,5.385,18.936,1.248L772.147,44.103c0.212,1.507,0.214,3.061-0.005,4.629l-42.755,307.425	c-2.769,19.909-20.014,34.922-40.114,34.922h-467.08c-8.284,0-15,6.716-15,15s6.716,15,15,15h467.08	c34.989,0,65.009-26.134,69.829-60.789l42.755-307.426C803.709,39.548,799.708,26.096,790.881,15.956z M495.411,204.423L308.436,30	h431.802L495.411,204.423z M90.647,124.812c0-8.284,6.716-15,15-15h138.302c8.284,0,15,6.716,15,15s-6.716,15-15,15H105.647	C97.363,139.812,90.647,133.097,90.647,124.812z M85.467,213.906c0-8.284,6.716-15,15-15h216c8.284,0,15,6.716,15,15	s-6.716,15-15,15h-216C92.183,228.906,85.467,222.19,85.467,213.906z M63.151,213.906c0,8.284-6.716,15-15,15H15	c-8.284,0-15-6.716-15-15s6.716-15,15-15h33.151C56.435,198.906,63.151,205.622,63.151,213.906z M222.194,286.964h139.338	c8.284,0,15,6.716,15,15s-6.716,15-15,15H222.194c-8.284,0-15-6.716-15-15S213.91,286.964,222.194,286.964z M193.683,301.964	c0,8.284-6.716,15-15,15h-35.741c-8.284,0-15-6.716-15-15s6.716-15,15-15h35.741C186.967,286.964,193.683,293.68,193.683,301.964z M115.467,301.964c0,8.284-6.716,15-15,15H80.266c-8.284,0-15-6.716-15-15s6.716-15,15-15h20.201	C108.751,286.964,115.467,293.68,115.467,301.964z"/></svg>