<svg version="1.1" id="Слой_16" xmlns="http://www.w3.org/2000/svg" x="0" y="0" viewBox="0 0 696.31 597.374" xml:space="preserve"><path d="M336.799,440.048c2.261,3.756,6.325,6.053,10.709,6.053c4.384,0,8.448-2.297,10.709-6.053	c0.33-0.548,33.351-55.498,65.923-118.597c44.403-86.016,66.918-145.87,66.918-177.901C491.058,64.396,426.661,0,347.508,0	c-79.154,0-143.551,64.396-143.551,143.55c0,32.031,22.515,91.885,66.918,177.901C303.449,384.55,336.469,439.5,336.799,440.048z M347.508,25c65.368,0,118.55,53.182,118.55,118.55c0,51.542-77.623,195.312-118.55,265.505	c-40.927-70.193-118.551-213.963-118.551-265.505C228.957,78.182,282.139,25,347.508,25z M425.015,145.363	c0-42.738-34.77-77.507-77.507-77.507c-42.738,0-77.507,34.77-77.507,77.507s34.77,77.507,77.507,77.507	C390.245,222.871,425.015,188.101,425.015,145.363z M295.001,145.363c0-28.953,23.555-52.507,52.507-52.507	c28.952,0,52.507,23.555,52.507,52.507s-23.555,52.507-52.507,52.507C318.555,197.871,295.001,174.316,295.001,145.363z M692.686,572.438c-3.651,3.683-9.2,4.727-13.939,2.627l-162.563-72.028L354.16,595.724c-1.922,1.101-4.064,1.65-6.207,1.65	c-2.141,0-4.282-0.549-6.204-1.648l-162.095-92.665L17.636,576.069c-4.713,2.122-10.25,1.125-13.927-2.511	c-3.676-3.637-4.733-9.162-2.659-13.899l91.166-208.23c1.27-2.9,3.593-5.21,6.5-6.464l109.295-47.137	c6.339-2.734,13.695,0.189,16.428,6.528c2.734,6.339-0.188,13.694-6.528,16.429l-104.771,45.185L36.978,539.933l133.5-60.157	l40.639-107.05c2.45-6.453,9.667-9.701,16.123-7.25c6.454,2.45,9.7,9.669,7.25,16.123l-38.684,101.898l139.85,79.948v-71.808	c0-6.903,5.597-12.5,12.5-12.5s12.5,5.597,12.5,12.5v71.571l139.257-79.664l-39.609-101.851c-2.502-6.434,0.686-13.678,7.12-16.181	c6.433-2.499,13.678,0.685,16.181,7.12l41.641,107.076l133.639,59.213l-79.696-175.85L473.91,320.91	c-6.408-2.567-9.523-9.843-6.957-16.252c2.567-6.407,9.841-9.523,16.252-6.957l109.942,44.029c2.993,1.199,5.407,3.508,6.738,6.444	l95.31,210.302C697.336,563.2,696.337,568.756,692.686,572.438z"/></svg>