<svg xmlns="http://www.w3.org/2000/svg" viewBox="0 0 119.496 81.658"><path d="M115.029 10.565H44.158V3h3.288V0H16.511v3h3.259v7.565H4.468C2 10.565 0 12.565 0 15.032v58.791c0 2.467 2 4.468 4.468 4.468h11.46v3.367h10.101v-3.367h66.648v3.367h10.101v-3.367h12.252c2.467 0 4.468-2 4.468-4.468V15.032a4.47 4.47 0 0 0-4.469-4.467zm-92.259-.044V3.205h18.388v7.317H22.77zm93.726 63.303a1.47 1.47 0 0 1-1.468 1.468H4.468A1.47 1.47 0 0 1 3 73.824V15.032a1.47 1.47 0 0 1 1.468-1.468h110.561a1.47 1.47 0 0 1 1.468 1.468v58.792zM43.759 62.072H56.59v3H40.759V30h15.723v3H43.759v11.914H54.41v3H43.759v14.158zm-.237-33.964a3.01 3.01 0 0 0 3.007-3.007 3.01 3.01 0 0 0-3.007-3.007 3.01 3.01 0 0 0-3.007 3.007 3.01 3.01 0 0 0 3.007 3.007zm0-5.015a2.007 2.007 0 1 1 0 4.014 2.007 2.007 0 0 1 0-4.014zm10.888-1a3.01 3.01 0 0 0-3.007 3.007 3.01 3.01 0 0 0 3.007 3.007 3.01 3.01 0 0 0 3.007-3.007 3.01 3.01 0 0 0-3.007-3.007zm0 5.015a2.007 2.007 0 1 1 0-4.014 2.007 2.007 0 0 1 0 4.014z"/></svg>