<svg version="1.1" id="Слой_1" xmlns="http://www.w3.org/2000/svg" x="0" y="0" viewBox="0 0 656.223 853.92" xml:space="preserve"><path d="M640.609,557.982l-31.974-31.974l30.036-30.036c20.97-20.971,20.97-55.092,0-76.062l-4.201-4.202	c-7.74-7.739-17.273-12.613-27.273-14.64c2.262-5.997,3.457-12.411,3.457-19.012c0-14.366-5.595-27.873-15.754-38.031l-4.201-4.201	c-7.161-7.162-15.99-12.042-25.608-14.306c2.09-5.79,3.182-11.96,3.182-18.299c0-14.366-5.594-27.873-15.753-38.032l-4.201-4.2	c-10.158-10.159-23.664-15.753-38.03-15.753c-10.083,0-19.735,2.765-28.11,7.919c-2.471-8.709-7.121-16.695-13.699-23.272	l-4.201-4.202c-10.158-10.158-23.665-15.752-38.031-15.752c-14.367,0-27.873,5.594-38.031,15.753l-37.954,37.954l-50.898-50.899	c-15.261-15.261-22.705-36.779-19.914-57.561c0.878-6.531,1.299-13.209,1.251-19.85c-0.267-37.236-15.377-72.376-42.545-98.947	c-27.187-26.589-62.701-40.926-99.954-40.362c-17.932,0.27-35.37,3.888-51.83,10.752c-4.618,1.926-7.972,6.027-8.942,10.936	s0.571,9.978,4.109,13.515l66.466,66.466c13.073,13.074,13.073,34.347,0,47.419c-13.074,13.074-34.347,13.073-47.42,0L34.581,83.101	c-3.562-3.564-8.676-5.099-13.615-4.089c-4.937,1.011-9.037,4.433-10.913,9.11C3.23,105.127-0.15,123.103,0.005,141.551	c0.306,36.497,14.676,71.017,40.463,97.199c25.792,26.187,60.09,41.073,96.577,41.916c6.512,0.15,13.069-0.148,19.48-0.886	c10.057-1.157,20.362-0.09,29.797,3.083c7.851,2.641,16.358-1.584,18.999-9.437c2.641-7.852-1.584-16.358-9.436-18.999	c-13.584-4.568-28.379-6.109-42.789-4.451c-5.049,0.581-10.216,0.817-15.359,0.697c-58.91-1.361-107.239-50.426-107.732-109.375	c-0.054-6.386,0.43-12.699,1.445-18.904l47.922,47.922c12.386,12.387,28.652,18.579,44.923,18.578	c16.267-0.001,32.539-6.194,44.923-18.578c24.77-24.77,24.77-65.074,0-89.846l-48.699-48.699c5.949-1.079,12.003-1.668,18.134-1.76	c29.214-0.431,57.1,10.858,78.526,31.813c21.408,20.937,33.313,48.537,33.522,77.714c0.037,5.237-0.294,10.499-0.985,15.64	c-4.029,29.994,6.601,60.936,28.434,82.769l14.061,14.061c-10.059,0.217-26.742,5.865-57.693,37.135	c-18.75,18.942-38.339,43.143-49.908,61.652c-13.521,21.635-19.996,72.209-25.708,116.83c-2.816,21.994-6.303,49.235-9.152,55.952	c-4.59,5.885-4.179,14.405,1.234,19.818c2.929,2.929,6.767,4.393,10.606,4.393s7.678-1.465,10.607-4.394	c7.498-7.498,9.963-21.196,16.462-71.96c4.791-37.424,11.353-88.677,21.392-104.74c10.082-16.131,27.438-37.661,44.219-54.851	c21.725-22.254,34.126-28.758,38.078-29.71c4.414,2.131,22.167,13.411,81.984,72.715c22.394,22.201,43.59,44.114,56.052,57.124	c-4.727,3.046-10.626,6.255-17.251,8.577c-20.479,7.175-38.297,2.806-54.462-13.36c-7.589-7.589-14.092-14.141-19.671-19.802	c-3.717-4.3-7.873-8.568-12.5-12.777c-16.843-17.368-20.074-21.451-20.255-21.684c0.337,0.434,0.431,0.607,0.431,0.607	l-24.963,16.64c2.41,3.615,14.828,16.846,34.92,37.254c41.607,48.842,11.664,102.296,10.196,104.841	c-4.17,7.131-1.789,16.297,5.334,20.494c2.392,1.409,5.013,2.079,7.602,2.079c5.137,0,10.14-2.641,12.937-7.387	c0.514-0.871,12.605-21.672,15.349-50.714c0.785-8.308,0.835-17.803-0.586-27.993c21.253,8.436,41.494,5.247,56.693-0.279	c6.411-2.331,12.259-5.214,17.366-8.165c1.085,12.119,6.249,23.938,15.505,33.194l4.201,4.201c0,0,0,0,0,0.001	c10.485,10.484,24.258,15.727,38.031,15.727c1.145,0,2.289-0.05,3.432-0.122c-0.112,13.918,5.122,27.872,15.718,38.468l4.201,4.2	c10.159,10.157,23.666,15.753,38.031,15.753c8.892,0,17.452-2.149,25.096-6.192l33.66,33.66c9.088,9.089,9.088,23.876,0,32.965	l-9.324,9.324c-4.402,4.402-10.256,6.827-16.482,6.827s-12.079-2.425-16.482-6.827L441.214,485.59	c-5.856-5.858-15.354-5.858-21.213,0c-5.858,5.857-5.858,15.355,0,21.213l80.115,80.115c-15.233,14.78-45.619,43.245-81.784,71.685	c-45.649,35.899-84.133,27.412-86.608,26.812c-5.179-1.464-10.491,0.025-14.334,3.795l-28.988,28.43L102.268,531.507	c-2.813-2.813-6.628-4.394-10.606-4.394c-3.979,0-7.793,1.58-10.606,4.394l-74.59,74.591c-5.858,5.857-5.858,15.355,0,21.213	c5.857,5.857,15.355,5.857,21.213,0l63.983-63.984l181.991,181.992c0.714,1.713,1.749,3.325,3.128,4.731	c1.457,1.485,3.147,2.601,4.954,3.351l13.002,13.002l-61.911,61.912c-5.858,5.857-5.858,15.355,0,21.213	c2.929,2.929,6.768,4.394,10.606,4.394s7.678-1.465,10.606-4.394l72.518-72.519c5.858-5.857,5.858-15.355,0-21.213l-16.94-16.94	l23.35-22.9c17.63,1.996,58.853,1.665,103.911-33.77c37.815-29.739,68.893-58.887,84.467-74.039l34.549,34.549	c10.068,10.069,23.456,15.614,37.695,15.614s27.627-5.545,37.695-15.614l9.324-9.324c10.069-10.068,15.614-23.456,15.614-37.695	S650.678,568.05,640.609,557.982z M360.534,299.788l48.894-48.894c4.492-4.492,10.465-6.966,16.818-6.966	c6.353,0,12.326,2.474,16.818,6.966l4.201,4.202c4.492,4.492,6.967,10.465,6.967,16.817c0,6.353-2.475,12.326-6.967,16.819	l-48.302,48.302c-2.195-2.185-4.405-4.378-6.624-6.57C380.726,318.994,370.105,308.753,360.534,299.788z M420.726,358.944	l72.744-72.743c4.492-4.492,10.465-6.966,16.818-6.966c6.353,0,12.325,2.474,16.817,6.967l4.201,4.2	c4.492,4.492,6.966,10.465,6.966,16.817c0,6.353-2.474,12.326-6.966,16.818l-10.422,10.422c-2.195,1.615-4.285,3.402-6.248,5.365	l-57.121,57.12C450.135,389.2,436.683,375.176,420.726,358.944z M482.44,456.486l-4.201-4.2c-7.976-7.976-9.071-20.246-3.328-29.426	l65.217-65.216c3.729-2.323,8.038-3.572,12.541-3.572c6.353,0,12.325,2.474,16.817,6.966l4.201,4.202	c4.492,4.492,6.967,10.465,6.967,16.817c0,6.353-2.475,12.326-6.967,16.819l-57.61,57.61	C506.803,465.759,491.713,465.759,482.44,456.486z M543.821,514.758C543.82,514.758,543.82,514.758,543.821,514.758l-4.2-4.199	c-9.273-9.273-9.273-24.363-0.001-33.638l40-40c4.638-4.637,10.727-6.955,16.818-6.955c6.09,0,12.182,2.319,16.818,6.955l4.2,4.201	c9.273,9.273,9.273,24.363,0.001,33.637l-40.001,40c-4.491,4.492-10.464,6.967-16.816,6.967	C554.286,521.726,548.314,519.251,543.821,514.758z"/></svg>