<svg version="1.1" id="Слой_7" xmlns="http://www.w3.org/2000/svg" x="0" y="0" viewBox="0 0 775.741 493.957" xml:space="preserve"><path d="M405.482,310.072c54.498,0,98.835-44.337,98.835-98.834v-63.712c0-54.498-44.337-98.834-98.835-98.834H204.921V19.842	c0-5.523-4.477-10-10-10s-10,4.477-10,10v28.849h-60.288V19.842c0-5.523-4.477-10-10-10s-10,4.477-10,10v28.849h-5.799	C44.337,48.691,0,93.028,0,147.525v63.712c0,54.498,44.337,98.834,98.834,98.834H405.482z M405.482,68.691	c43.47,0,78.835,35.365,78.835,78.834v63.712c0,43.469-35.365,78.834-78.835,78.834H204.921V68.691H405.482z M184.921,68.691v36.46	h-26.777c-5.523,0-10,4.477-10,10s4.477,10,10,10h26.777v44.23h-26.777c-5.523,0-10,4.477-10,10s4.477,10,10,10h26.777v44.23	h-26.777c-5.523,0-10,4.477-10,10s4.477,10,10,10h26.777v36.461h-60.288V68.691H184.921z M20,211.238v-63.712	c0-43.469,35.365-78.834,78.834-78.834h5.799v221.381h-5.799C55.365,290.072,20,254.707,20,211.238z M775.741,250.09v184.658	c0,5.522-4.478,10-10,10h-53.353c-4.085,0-7.76-2.485-9.281-6.276l-32.187-80.227H529.54c-5.522,0-10-4.478-10-10s4.478-10,10-10	h148.144c4.085,0,7.76,2.485,9.281,6.276l32.187,80.227h36.59V252.514l-72.242-140.312H560.259V290.23c0,5.522-4.478,10-10,10	s-10-4.478-10-10V102.202c0-5.523,4.478-10,10-10h139.338c3.745,0,7.177,2.093,8.891,5.422l76.144,147.889	C775.361,246.929,775.741,248.498,775.741,250.09z M626.561,154.518v51.123h64.072c5.522,0,10,4.477,10,10s-4.478,10-10,10h-74.072	c-5.522,0-10-4.477-10-10v-61.123c0-5.523,4.478-10,10-10S626.561,148.995,626.561,154.518z M343.324,385.899	c-23.375,0-43.325,14.924-50.837,35.741h-61.233c-7.512-20.817-27.462-35.741-50.837-35.741s-43.325,14.924-50.837,35.741H88.374	v-74.432c0-5.522-4.477-10-10-10s-10,4.478-10,10v84.432c0,5.522,4.477,10,10,10h48.058c0.91,29.001,24.768,52.316,53.985,52.316	s53.076-23.316,53.985-52.316h54.936c0.91,29.001,24.768,52.316,53.985,52.316c29.792,0,54.029-24.237,54.029-54.029	C397.353,410.137,373.115,385.899,343.324,385.899z M180.417,473.957c-18.764,0-34.029-15.266-34.029-34.029	s15.265-34.028,34.029-34.028s34.029,15.265,34.029,34.028S199.181,473.957,180.417,473.957z M343.324,473.957	c-18.764,0-34.029-15.266-34.029-34.029s15.265-34.028,34.029-34.028s34.029,15.265,34.029,34.028S362.087,473.957,343.324,473.957z M614.292,385.899c-21.589,0-40.253,12.733-48.899,31.079H458.722l-27.065-70.753c-1.48-3.87-5.195-6.427-9.34-6.427H162.288	c-5.523,0-10,4.478-10,10s4.477,10,10,10h253.148l27.065,70.753c1.48,3.87,5.195,6.427,9.34,6.427h108.505	c-0.053,0.977-0.084,1.959-0.084,2.949c0,29.792,24.237,54.029,54.029,54.029c29.791,0,54.028-24.237,54.028-54.029	C668.321,410.137,644.083,385.899,614.292,385.899z M614.292,473.957c-18.764,0-34.029-15.266-34.029-34.029	s15.266-34.028,34.029-34.028s34.028,15.265,34.028,34.028S633.056,473.957,614.292,473.957z M289.604,10c0-5.523,4.477-10,10-10	h69.877c5.523,0,10,4.477,10,10s-4.477,10-10,10h-69.877C294.082,20,289.604,15.523,289.604,10z"/></svg>