<svg version="1.1" id="Слой_1" xmlns="http://www.w3.org/2000/svg" x="0" y="0" viewBox="0 0 759.324 821.067" xml:space="preserve"><path d="M744.324,791.067h-23.331V451.765c0-5.416-2.92-10.411-7.639-13.069c-4.718-2.657-10.502-2.566-15.136,0.241	l-131.067,79.434v-66.605c0-5.433-2.937-10.439-7.678-13.092c-4.741-2.649-10.544-2.531-15.174,0.311l-128.917,79.198v-66.417	c0-5.462-2.969-10.492-7.75-13.132c-4.782-2.641-10.62-2.47-15.242,0.438l-97.9,61.64c-7.01,4.414-9.115,13.675-4.701,20.686	c4.413,7.01,13.675,9.114,20.686,4.701l74.908-47.163v66.066c0,5.433,2.937,10.439,7.678,13.092	c4.741,2.65,10.545,2.532,15.174-0.311l128.917-79.198v66.417c0,5.416,2.92,10.411,7.639,13.069	c4.718,2.657,10.503,2.566,15.136-0.241l131.067-79.434v312.671H264.362l-30.298-549.911c-0.438-7.952-7.013-14.175-14.977-14.175	H91.662c-7.948,0-14.516,6.199-14.975,14.134L44.871,791.067H15c-8.284,0-15,6.716-15,15s6.716,15,15,15h729.324	c8.284,0,15-6.716,15-15S752.608,791.067,744.324,791.067z M105.819,256.981h99.071l2.656,48.215h-61.496c-8.284,0-15,6.716-15,15	s6.716,15,15,15H209.2l25.117,455.871H74.922L105.819,256.981z M315.95,661.527c-8.284,0-15-6.716-15-15s6.716-15,15-15h46.101	c8.284,0,15,6.716,15,15s-6.716,15-15,15H315.95z M447,661.527c-8.284,0-15-6.716-15-15s6.716-15,15-15h46.101	c8.284,0,15,6.716,15,15s-6.716,15-15,15H447z M579.087,661.527c-8.284,0-15-6.716-15-15s6.716-15,15-15h46.1	c8.284,0,15,6.716,15,15s-6.716,15-15,15H579.087z M140.374,186.038c0-29.294,11.521-56.948,32.441-77.868	s48.574-32.441,77.868-32.441c1.756,0,3.505,0.057,5.252,0.14c6.783-20.531,19.625-38.892,36.774-52.331	C312.078,8.359,336.227,0,360.708,0c29.293,0,56.948,11.521,77.868,32.441s32.441,48.574,32.441,77.868	c0,37.887-20.007,73.817-52.213,93.77c-2.46,1.524-5.189,2.251-7.885,2.251c-5.021,0-9.927-2.52-12.766-7.102	c-4.363-7.042-2.191-16.288,4.852-20.651c23.446-14.526,38.012-40.685,38.012-68.268c0-44.283-36.026-80.309-80.309-80.309	c-33.638,0-63.161,20.709-74.948,51.444c8.747,2.935,17.138,6.977,24.983,12.069c6.949,4.51,8.925,13.8,4.415,20.749	c-4.51,6.948-13.8,8.925-20.749,4.415c-13.049-8.47-28.169-12.947-43.726-12.947c-44.283,0-80.309,36.026-80.309,80.309	c0,8.284-6.716,15-15,15S140.374,194.322,140.374,186.038z"/></svg>