<svg version="1.1" id="Слой_8" xmlns="http://www.w3.org/2000/svg" x="0" y="0" viewBox="0 0 771.593 607.92" xml:space="preserve"><path d="M240.492,52.205l3.5-39.885C244.604,5.348,250.442,0,257.44,0h89.094c6.999,0,12.836,5.348,13.448,12.32l6.446,73.461	c6.854,2.016,13.636,4.353,20.245,6.991c7.341,2.93,14.581,6.275,21.603,9.964l54.78-45.941c5.36-4.499,13.271-4.152,18.221,0.798	l31.804,31.804c5.272,5.272,5.272,13.82,0,19.092c-5.271,5.272-13.82,5.272-19.092,0l-23.059-23.059l-51.881,43.509	c-2.528,2.121-5.607,3.157-8.668,3.157c-2.041,0-4.069-0.474-5.927-1.38c-1.327-0.274-2.635-0.749-3.88-1.448	c-7.685-4.312-15.729-8.154-23.91-11.418c-8.183-3.266-16.662-6.02-25.203-8.183c-5.064-1.283-8.718-5.275-9.827-10.035	c-0.836-1.561-1.385-3.306-1.55-5.181L334.167,27h-64.359l-2.419,27.565c-0.651,7.427-7.2,12.92-14.628,12.268	C245.333,66.181,239.84,59.632,240.492,52.205z M77.681,166.786c2.67,3.184,6.497,4.826,10.351,4.826	c3.061,0,6.14-1.036,8.668-3.157c5.713-4.791,6.46-13.306,1.669-19.019L84.37,132.744l45.508-45.508l51.88,43.509	c4.928,4.134,11.937,4.136,16.846,0.393c1.43-0.266,2.842-0.767,4.179-1.524c7.872-4.453,16.118-8.409,24.511-11.759	c8.395-3.351,17.098-6.162,25.87-8.353c7.234-1.808,11.633-9.136,9.826-16.37c-1.808-7.233-9.137-11.634-16.37-9.826	c-9.947,2.485-19.817,5.672-29.336,9.472c-8.471,3.381-16.809,7.31-24.835,11.694l-54.696-45.871	c-5.363-4.498-13.272-4.151-18.221,0.798l-62.999,62.999c-4.949,4.949-5.295,12.858-0.798,18.221L77.681,166.786z M298.5,580.92	H266.32l-5.919-67.449c-0.234-2.661-1.234-5.066-2.751-7.036c-1.651-3.356-4.668-6.02-8.561-7.079	c-8.249-2.244-16.442-5.047-24.351-8.329c-7.9-3.28-15.67-7.105-23.092-11.368c-2.403-1.379-5.051-1.935-7.621-1.761	c-3.932-0.844-8.195,0.057-11.515,2.841l-51.88,43.509l-45.509-45.509l43.509-51.88c3.25-3.876,3.944-9.039,2.275-13.457	c-0.252-1.701-0.831-3.383-1.769-4.95c-4.801-8.019-9.079-16.446-12.715-25.05c-3.638-8.605-6.702-17.546-9.107-26.573	c-0.208-0.779-0.49-1.516-0.819-2.223c-1.157-5.712-5.944-10.23-12.046-10.765L27,337.921v-64.359l67.45-5.919	c7.112-0.624,12.434-6.658,12.303-13.69c0.426-0.822,0.783-1.694,1.039-2.623c2.239-8.106,5.015-16.151,8.251-23.913	c3.236-7.76,6.999-15.394,11.183-22.69c3.709-6.468,1.473-14.718-4.995-18.427c-6.47-3.71-14.718-1.473-18.427,4.995	c-4.745,8.274-9.012,16.932-12.681,25.731c-3.33,7.985-6.225,16.236-8.63,24.563l-70.174,6.158C5.348,248.358,0,254.196,0,261.195	v89.094c0,6.998,5.348,12.837,12.32,13.448l70.648,6.2c2.416,8.139,5.289,16.181,8.585,23.978	c3.198,7.564,6.837,15.006,10.846,22.207l-45.91,54.743c-4.497,5.362-4.151,13.272,0.798,18.221l62.999,62.999	c2.624,2.624,6.081,3.954,9.549,3.954c3.072,0,6.153-1.044,8.672-3.156l55.534-46.574c6.619,3.547,13.438,6.786,20.347,9.655	c6.45,2.677,13.069,5.068,19.757,7.148l6.361,72.488c0.612,6.972,6.45,12.32,13.448,12.32H298.5c7.456,0,13.5-6.044,13.5-13.5	S305.956,580.92,298.5,580.92z M194.819,203.66c-5.864-4.604-14.351-3.583-18.955,2.282c-22.07,28.111-34.225,63.277-34.225,99.018	c0,42.567,16.751,82.763,47.169,113.18s70.612,47.169,113.18,47.169c10.31,0,20.665-1.003,30.779-2.981	c7.317-1.432,12.088-8.523,10.657-15.841c-1.432-7.317-8.525-12.087-15.841-10.657c-8.41,1.646-17.022,2.479-25.596,2.479	c-73.529,0-133.349-59.82-133.349-133.349c0-29.723,10.108-58.967,28.462-82.345C201.705,216.751,200.684,208.265,194.819,203.66z M434.881,293.952c0.584,7.052,6.487,12.387,13.438,12.386c0.374,0,0.751-0.015,1.13-0.046c7.431-0.616,12.955-7.138,12.34-14.568	c-3.314-40.015-21.547-77.156-51.339-104.582c-29.792-27.426-68.312-42.53-108.463-42.53c-25.877,0-51.665,6.361-74.573,18.396	c-6.601,3.467-9.141,11.629-5.673,18.229c3.468,6.601,11.629,9.142,18.229,5.673c19.051-10.008,40.496-15.298,62.016-15.298	C370.825,171.611,429.199,225.35,434.881,293.952z M378.164,304.96c0-42.004-34.172-76.176-76.176-76.176	c-7.472,0-14.887,1.096-22.041,3.258c-7.137,2.157-11.174,9.691-9.017,16.829c2.157,7.137,9.691,11.174,16.829,9.017	c4.618-1.396,9.405-2.104,14.229-2.104c27.116,0,49.176,22.061,49.176,49.176c0,27.115-22.061,49.176-49.176,49.176	s-49.176-22.061-49.176-49.176c0-6.14,1.131-12.153,3.363-17.874c2.71-6.946-0.724-14.773-7.67-17.483	c-6.947-2.713-14.773,0.724-17.483,7.67c-3.457,8.86-5.209,18.175-5.209,27.686c0,42.004,34.172,76.176,76.176,76.176	S378.164,346.964,378.164,304.96z M642.027,340.553c-0.51,0.011-1.02,0.019-1.529,0.023c-18.217,0.174-35.698,8.975-46.777,23.544	L425.651,585.11c-9.445,12.421-22.817,19.814-37.651,20.819c-1.147,0.077-2.293,0.116-3.433,0.116	c-13.589,0-26.502-5.489-36.684-15.671l-8.802-8.802c-17.103-17.103-19.031-45.58-4.39-64.832l163.82-215.404	c13.232-17.399,17.758-39.407,12.414-60.38c-2.838-11.139-4.211-22.667-4.081-34.264c0.38-33.956,13.713-66.16,37.541-90.68	c23.837-24.528,55.648-38.763,89.576-40.083c13.896-0.537,27.681,1.068,40.963,4.782c4.308,1.204,7.739,4.464,9.163,8.704	c1.424,4.24,0.655,8.91-2.053,12.47l-48.69,64.022c-10.501,13.809-9.01,35.839,3.257,48.106c5.439,5.44,12.256,8.173,19.2,7.708	c6.941-0.47,13.329-4.101,17.986-10.225l56.009-73.646c2.694-3.543,6.944-5.537,11.412-5.311c4.447,0.22,8.5,2.619,10.832,6.411	c12.326,20.042,19.078,43.104,19.527,66.694C772.953,278.511,714.84,339.031,642.027,340.553z M744.574,206.158	c-0.226-11.854-2.449-23.538-6.526-34.554l-42.769,56.236c-9.446,12.421-22.818,19.814-37.653,20.819	c-14.828,1-29.081-4.52-40.114-15.554c-21.671-21.67-24.209-59.147-5.657-83.542l35.317-46.438c-2.645-0.198-5.304-0.297-7.97-0.297	c-1.395,0-2.791,0.027-4.19,0.082c-56.1,2.182-100.538,47.902-101.168,104.086c-0.104,9.249,0.989,18.432,3.247,27.295	c7.389,29.002,1.161,59.397-17.088,83.391L356.183,533.084c-6.307,8.293-5.376,22.029,1.99,29.396l8.802,8.802	c5.441,5.44,12.262,8.17,19.2,7.708c6.94-0.47,13.328-4.102,17.985-10.225l168.068-220.989	c16.092-21.162,41.512-33.946,67.997-34.198c0.402-0.005,0.818-0.011,1.234-0.02C699.419,312.347,745.675,264.167,744.574,206.158z"/></svg>